<?xml version="1.0" encoding="utf-8" standalone="no"?>
<!DOCTYPE svg PUBLIC "-//W3C//DTD SVG 1.1//EN"
  "http://www.w3.org/Graphics/SVG/1.1/DTD/svg11.dtd">
<svg height="360pt" version="1.1" viewBox="0 0 1152 360" width="1152pt" xmlns="http://www.w3.org/2000/svg" xmlns:xlink="http://www.w3.org/1999/xlink">
 <metadata>
  <rdf:RDF xmlns:cc="http://creativecommons.org/ns#" xmlns:dc="http://purl.org/dc/elements/1.1/" xmlns:rdf="http://www.w3.org/1999/02/22-rdf-syntax-ns#">
   <cc:Work>
    <dc:type rdf:resource="http://purl.org/dc/dcmitype/StillImage"/>
    <dc:date>2022-03-08T16:16:26.711504</dc:date>
    <dc:format>image/svg+xml</dc:format>
    <dc:creator>
     <cc:Agent>
      <dc:title>Matplotlib v3.4.3, https://matplotlib.org/</dc:title>
     </cc:Agent>
    </dc:creator>
   </cc:Work>
  </rdf:RDF>
 </metadata>
 <defs>
  <style type="text/css">*{stroke-linecap:butt;stroke-linejoin:round;}</style>
 </defs>
 <g id="figure_1">
  <g id="patch_1">
   <path d="M 0 360 
L 1152 360 
L 1152 0 
L 0 0 
z
" style="fill:#ffffff;"/>
  </g>
  <g id="axes_1">
   <g id="patch_2">
    <path d="M 66.2638 302.1112 
L 583.0431 302.1112 
L 583.0431 34.5888 
L 66.2638 34.5888 
z
" style="fill:#ffffff;"/>
   </g>
   <g id="matplotlib.axis_1">
    <g id="xtick_1">
     <g id="line2d_1">
      <path clip-path="url(#p79d33e2852)" d="M 89.753768 302.1112 
L 89.753768 34.5888 
" style="fill:none;stroke:#cccccc;stroke-linecap:round;stroke-width:0.8;"/>
     </g>
     <g id="text_1">
      <!-- 0.0 -->
      <g style="fill:#262626;" transform="translate(78.557968 321.1098)scale(0.1408 -0.1408)">
       <defs>
        <path d="M 2034 4250 
Q 1547 4250 1301 3770 
Q 1056 3291 1056 2328 
Q 1056 1369 1301 889 
Q 1547 409 2034 409 
Q 2525 409 2770 889 
Q 3016 1369 3016 2328 
Q 3016 3291 2770 3770 
Q 2525 4250 2034 4250 
z
M 2034 4750 
Q 2819 4750 3233 4129 
Q 3647 3509 3647 2328 
Q 3647 1150 3233 529 
Q 2819 -91 2034 -91 
Q 1250 -91 836 529 
Q 422 1150 422 2328 
Q 422 3509 836 4129 
Q 1250 4750 2034 4750 
z
" id="DejaVuSans-30" transform="scale(0.015625)"/>
        <path d="M 684 794 
L 1344 794 
L 1344 0 
L 684 0 
L 684 794 
z
" id="DejaVuSans-2e" transform="scale(0.015625)"/>
       </defs>
       <use xlink:href="#DejaVuSans-30"/>
       <use x="63.623047" xlink:href="#DejaVuSans-2e"/>
       <use x="95.410156" xlink:href="#DejaVuSans-30"/>
      </g>
     </g>
    </g>
    <g id="xtick_2">
     <g id="line2d_2">
      <path clip-path="url(#p79d33e2852)" d="M 183.713641 302.1112 
L 183.713641 34.5888 
" style="fill:none;stroke:#cccccc;stroke-linecap:round;stroke-width:0.8;"/>
     </g>
     <g id="text_2">
      <!-- 0.2 -->
      <g style="fill:#262626;" transform="translate(172.517841 321.1098)scale(0.1408 -0.1408)">
       <defs>
        <path d="M 1228 531 
L 3431 531 
L 3431 0 
L 469 0 
L 469 531 
Q 828 903 1448 1529 
Q 2069 2156 2228 2338 
Q 2531 2678 2651 2914 
Q 2772 3150 2772 3378 
Q 2772 3750 2511 3984 
Q 2250 4219 1831 4219 
Q 1534 4219 1204 4116 
Q 875 4013 500 3803 
L 500 4441 
Q 881 4594 1212 4672 
Q 1544 4750 1819 4750 
Q 2544 4750 2975 4387 
Q 3406 4025 3406 3419 
Q 3406 3131 3298 2873 
Q 3191 2616 2906 2266 
Q 2828 2175 2409 1742 
Q 1991 1309 1228 531 
z
" id="DejaVuSans-32" transform="scale(0.015625)"/>
       </defs>
       <use xlink:href="#DejaVuSans-30"/>
       <use x="63.623047" xlink:href="#DejaVuSans-2e"/>
       <use x="95.410156" xlink:href="#DejaVuSans-32"/>
      </g>
     </g>
    </g>
    <g id="xtick_3">
     <g id="line2d_3">
      <path clip-path="url(#p79d33e2852)" d="M 277.673514 302.1112 
L 277.673514 34.5888 
" style="fill:none;stroke:#cccccc;stroke-linecap:round;stroke-width:0.8;"/>
     </g>
     <g id="text_3">
      <!-- 0.4 -->
      <g style="fill:#262626;" transform="translate(266.477714 321.1098)scale(0.1408 -0.1408)">
       <defs>
        <path d="M 2419 4116 
L 825 1625 
L 2419 1625 
L 2419 4116 
z
M 2253 4666 
L 3047 4666 
L 3047 1625 
L 3713 1625 
L 3713 1100 
L 3047 1100 
L 3047 0 
L 2419 0 
L 2419 1100 
L 313 1100 
L 313 1709 
L 2253 4666 
z
" id="DejaVuSans-34" transform="scale(0.015625)"/>
       </defs>
       <use xlink:href="#DejaVuSans-30"/>
       <use x="63.623047" xlink:href="#DejaVuSans-2e"/>
       <use x="95.410156" xlink:href="#DejaVuSans-34"/>
      </g>
     </g>
    </g>
    <g id="xtick_4">
     <g id="line2d_4">
      <path clip-path="url(#p79d33e2852)" d="M 371.633386 302.1112 
L 371.633386 34.5888 
" style="fill:none;stroke:#cccccc;stroke-linecap:round;stroke-width:0.8;"/>
     </g>
     <g id="text_4">
      <!-- 0.6 -->
      <g style="fill:#262626;" transform="translate(360.437586 321.1098)scale(0.1408 -0.1408)">
       <defs>
        <path d="M 2113 2584 
Q 1688 2584 1439 2293 
Q 1191 2003 1191 1497 
Q 1191 994 1439 701 
Q 1688 409 2113 409 
Q 2538 409 2786 701 
Q 3034 994 3034 1497 
Q 3034 2003 2786 2293 
Q 2538 2584 2113 2584 
z
M 3366 4563 
L 3366 3988 
Q 3128 4100 2886 4159 
Q 2644 4219 2406 4219 
Q 1781 4219 1451 3797 
Q 1122 3375 1075 2522 
Q 1259 2794 1537 2939 
Q 1816 3084 2150 3084 
Q 2853 3084 3261 2657 
Q 3669 2231 3669 1497 
Q 3669 778 3244 343 
Q 2819 -91 2113 -91 
Q 1303 -91 875 529 
Q 447 1150 447 2328 
Q 447 3434 972 4092 
Q 1497 4750 2381 4750 
Q 2619 4750 2861 4703 
Q 3103 4656 3366 4563 
z
" id="DejaVuSans-36" transform="scale(0.015625)"/>
       </defs>
       <use xlink:href="#DejaVuSans-30"/>
       <use x="63.623047" xlink:href="#DejaVuSans-2e"/>
       <use x="95.410156" xlink:href="#DejaVuSans-36"/>
      </g>
     </g>
    </g>
    <g id="xtick_5">
     <g id="line2d_5">
      <path clip-path="url(#p79d33e2852)" d="M 465.593259 302.1112 
L 465.593259 34.5888 
" style="fill:none;stroke:#cccccc;stroke-linecap:round;stroke-width:0.8;"/>
     </g>
     <g id="text_5">
      <!-- 0.8 -->
      <g style="fill:#262626;" transform="translate(454.397459 321.1098)scale(0.1408 -0.1408)">
       <defs>
        <path d="M 2034 2216 
Q 1584 2216 1326 1975 
Q 1069 1734 1069 1313 
Q 1069 891 1326 650 
Q 1584 409 2034 409 
Q 2484 409 2743 651 
Q 3003 894 3003 1313 
Q 3003 1734 2745 1975 
Q 2488 2216 2034 2216 
z
M 1403 2484 
Q 997 2584 770 2862 
Q 544 3141 544 3541 
Q 544 4100 942 4425 
Q 1341 4750 2034 4750 
Q 2731 4750 3128 4425 
Q 3525 4100 3525 3541 
Q 3525 3141 3298 2862 
Q 3072 2584 2669 2484 
Q 3125 2378 3379 2068 
Q 3634 1759 3634 1313 
Q 3634 634 3220 271 
Q 2806 -91 2034 -91 
Q 1263 -91 848 271 
Q 434 634 434 1313 
Q 434 1759 690 2068 
Q 947 2378 1403 2484 
z
M 1172 3481 
Q 1172 3119 1398 2916 
Q 1625 2713 2034 2713 
Q 2441 2713 2670 2916 
Q 2900 3119 2900 3481 
Q 2900 3844 2670 4047 
Q 2441 4250 2034 4250 
Q 1625 4250 1398 4047 
Q 1172 3844 1172 3481 
z
" id="DejaVuSans-38" transform="scale(0.015625)"/>
       </defs>
       <use xlink:href="#DejaVuSans-30"/>
       <use x="63.623047" xlink:href="#DejaVuSans-2e"/>
       <use x="95.410156" xlink:href="#DejaVuSans-38"/>
      </g>
     </g>
    </g>
    <g id="xtick_6">
     <g id="line2d_6">
      <path clip-path="url(#p79d33e2852)" d="M 559.553132 302.1112 
L 559.553132 34.5888 
" style="fill:none;stroke:#cccccc;stroke-linecap:round;stroke-width:0.8;"/>
     </g>
     <g id="text_6">
      <!-- 1.0 -->
      <g style="fill:#262626;" transform="translate(548.357332 321.1098)scale(0.1408 -0.1408)">
       <defs>
        <path d="M 794 531 
L 1825 531 
L 1825 4091 
L 703 3866 
L 703 4441 
L 1819 4666 
L 2450 4666 
L 2450 531 
L 3481 531 
L 3481 0 
L 794 0 
L 794 531 
z
" id="DejaVuSans-31" transform="scale(0.015625)"/>
       </defs>
       <use xlink:href="#DejaVuSans-31"/>
       <use x="63.623047" xlink:href="#DejaVuSans-2e"/>
       <use x="95.410156" xlink:href="#DejaVuSans-30"/>
      </g>
     </g>
    </g>
    <g id="text_7">
     <!-- False Positive Rate (Positive label: Neuroma) -->
     <g style="fill:#262626;" transform="translate(153.99305 339.7092)scale(0.1536 -0.1536)">
      <defs>
       <path d="M 628 4666 
L 3309 4666 
L 3309 4134 
L 1259 4134 
L 1259 2759 
L 3109 2759 
L 3109 2228 
L 1259 2228 
L 1259 0 
L 628 0 
L 628 4666 
z
" id="DejaVuSans-46" transform="scale(0.015625)"/>
       <path d="M 2194 1759 
Q 1497 1759 1228 1600 
Q 959 1441 959 1056 
Q 959 750 1161 570 
Q 1363 391 1709 391 
Q 2188 391 2477 730 
Q 2766 1069 2766 1631 
L 2766 1759 
L 2194 1759 
z
M 3341 1997 
L 3341 0 
L 2766 0 
L 2766 531 
Q 2569 213 2275 61 
Q 1981 -91 1556 -91 
Q 1019 -91 701 211 
Q 384 513 384 1019 
Q 384 1609 779 1909 
Q 1175 2209 1959 2209 
L 2766 2209 
L 2766 2266 
Q 2766 2663 2505 2880 
Q 2244 3097 1772 3097 
Q 1472 3097 1187 3025 
Q 903 2953 641 2809 
L 641 3341 
Q 956 3463 1253 3523 
Q 1550 3584 1831 3584 
Q 2591 3584 2966 3190 
Q 3341 2797 3341 1997 
z
" id="DejaVuSans-61" transform="scale(0.015625)"/>
       <path d="M 603 4863 
L 1178 4863 
L 1178 0 
L 603 0 
L 603 4863 
z
" id="DejaVuSans-6c" transform="scale(0.015625)"/>
       <path d="M 2834 3397 
L 2834 2853 
Q 2591 2978 2328 3040 
Q 2066 3103 1784 3103 
Q 1356 3103 1142 2972 
Q 928 2841 928 2578 
Q 928 2378 1081 2264 
Q 1234 2150 1697 2047 
L 1894 2003 
Q 2506 1872 2764 1633 
Q 3022 1394 3022 966 
Q 3022 478 2636 193 
Q 2250 -91 1575 -91 
Q 1294 -91 989 -36 
Q 684 19 347 128 
L 347 722 
Q 666 556 975 473 
Q 1284 391 1588 391 
Q 1994 391 2212 530 
Q 2431 669 2431 922 
Q 2431 1156 2273 1281 
Q 2116 1406 1581 1522 
L 1381 1569 
Q 847 1681 609 1914 
Q 372 2147 372 2553 
Q 372 3047 722 3315 
Q 1072 3584 1716 3584 
Q 2034 3584 2315 3537 
Q 2597 3491 2834 3397 
z
" id="DejaVuSans-73" transform="scale(0.015625)"/>
       <path d="M 3597 1894 
L 3597 1613 
L 953 1613 
Q 991 1019 1311 708 
Q 1631 397 2203 397 
Q 2534 397 2845 478 
Q 3156 559 3463 722 
L 3463 178 
Q 3153 47 2828 -22 
Q 2503 -91 2169 -91 
Q 1331 -91 842 396 
Q 353 884 353 1716 
Q 353 2575 817 3079 
Q 1281 3584 2069 3584 
Q 2775 3584 3186 3129 
Q 3597 2675 3597 1894 
z
M 3022 2063 
Q 3016 2534 2758 2815 
Q 2500 3097 2075 3097 
Q 1594 3097 1305 2825 
Q 1016 2553 972 2059 
L 3022 2063 
z
" id="DejaVuSans-65" transform="scale(0.015625)"/>
       <path id="DejaVuSans-20" transform="scale(0.015625)"/>
       <path d="M 1259 4147 
L 1259 2394 
L 2053 2394 
Q 2494 2394 2734 2622 
Q 2975 2850 2975 3272 
Q 2975 3691 2734 3919 
Q 2494 4147 2053 4147 
L 1259 4147 
z
M 628 4666 
L 2053 4666 
Q 2838 4666 3239 4311 
Q 3641 3956 3641 3272 
Q 3641 2581 3239 2228 
Q 2838 1875 2053 1875 
L 1259 1875 
L 1259 0 
L 628 0 
L 628 4666 
z
" id="DejaVuSans-50" transform="scale(0.015625)"/>
       <path d="M 1959 3097 
Q 1497 3097 1228 2736 
Q 959 2375 959 1747 
Q 959 1119 1226 758 
Q 1494 397 1959 397 
Q 2419 397 2687 759 
Q 2956 1122 2956 1747 
Q 2956 2369 2687 2733 
Q 2419 3097 1959 3097 
z
M 1959 3584 
Q 2709 3584 3137 3096 
Q 3566 2609 3566 1747 
Q 3566 888 3137 398 
Q 2709 -91 1959 -91 
Q 1206 -91 779 398 
Q 353 888 353 1747 
Q 353 2609 779 3096 
Q 1206 3584 1959 3584 
z
" id="DejaVuSans-6f" transform="scale(0.015625)"/>
       <path d="M 603 3500 
L 1178 3500 
L 1178 0 
L 603 0 
L 603 3500 
z
M 603 4863 
L 1178 4863 
L 1178 4134 
L 603 4134 
L 603 4863 
z
" id="DejaVuSans-69" transform="scale(0.015625)"/>
       <path d="M 1172 4494 
L 1172 3500 
L 2356 3500 
L 2356 3053 
L 1172 3053 
L 1172 1153 
Q 1172 725 1289 603 
Q 1406 481 1766 481 
L 2356 481 
L 2356 0 
L 1766 0 
Q 1100 0 847 248 
Q 594 497 594 1153 
L 594 3053 
L 172 3053 
L 172 3500 
L 594 3500 
L 594 4494 
L 1172 4494 
z
" id="DejaVuSans-74" transform="scale(0.015625)"/>
       <path d="M 191 3500 
L 800 3500 
L 1894 563 
L 2988 3500 
L 3597 3500 
L 2284 0 
L 1503 0 
L 191 3500 
z
" id="DejaVuSans-76" transform="scale(0.015625)"/>
       <path d="M 2841 2188 
Q 3044 2119 3236 1894 
Q 3428 1669 3622 1275 
L 4263 0 
L 3584 0 
L 2988 1197 
Q 2756 1666 2539 1819 
Q 2322 1972 1947 1972 
L 1259 1972 
L 1259 0 
L 628 0 
L 628 4666 
L 2053 4666 
Q 2853 4666 3247 4331 
Q 3641 3997 3641 3322 
Q 3641 2881 3436 2590 
Q 3231 2300 2841 2188 
z
M 1259 4147 
L 1259 2491 
L 2053 2491 
Q 2509 2491 2742 2702 
Q 2975 2913 2975 3322 
Q 2975 3731 2742 3939 
Q 2509 4147 2053 4147 
L 1259 4147 
z
" id="DejaVuSans-52" transform="scale(0.015625)"/>
       <path d="M 1984 4856 
Q 1566 4138 1362 3434 
Q 1159 2731 1159 2009 
Q 1159 1288 1364 580 
Q 1569 -128 1984 -844 
L 1484 -844 
Q 1016 -109 783 600 
Q 550 1309 550 2009 
Q 550 2706 781 3412 
Q 1013 4119 1484 4856 
L 1984 4856 
z
" id="DejaVuSans-28" transform="scale(0.015625)"/>
       <path d="M 3116 1747 
Q 3116 2381 2855 2742 
Q 2594 3103 2138 3103 
Q 1681 3103 1420 2742 
Q 1159 2381 1159 1747 
Q 1159 1113 1420 752 
Q 1681 391 2138 391 
Q 2594 391 2855 752 
Q 3116 1113 3116 1747 
z
M 1159 2969 
Q 1341 3281 1617 3432 
Q 1894 3584 2278 3584 
Q 2916 3584 3314 3078 
Q 3713 2572 3713 1747 
Q 3713 922 3314 415 
Q 2916 -91 2278 -91 
Q 1894 -91 1617 61 
Q 1341 213 1159 525 
L 1159 0 
L 581 0 
L 581 4863 
L 1159 4863 
L 1159 2969 
z
" id="DejaVuSans-62" transform="scale(0.015625)"/>
       <path d="M 750 794 
L 1409 794 
L 1409 0 
L 750 0 
L 750 794 
z
M 750 3309 
L 1409 3309 
L 1409 2516 
L 750 2516 
L 750 3309 
z
" id="DejaVuSans-3a" transform="scale(0.015625)"/>
       <path d="M 628 4666 
L 1478 4666 
L 3547 763 
L 3547 4666 
L 4159 4666 
L 4159 0 
L 3309 0 
L 1241 3903 
L 1241 0 
L 628 0 
L 628 4666 
z
" id="DejaVuSans-4e" transform="scale(0.015625)"/>
       <path d="M 544 1381 
L 544 3500 
L 1119 3500 
L 1119 1403 
Q 1119 906 1312 657 
Q 1506 409 1894 409 
Q 2359 409 2629 706 
Q 2900 1003 2900 1516 
L 2900 3500 
L 3475 3500 
L 3475 0 
L 2900 0 
L 2900 538 
Q 2691 219 2414 64 
Q 2138 -91 1772 -91 
Q 1169 -91 856 284 
Q 544 659 544 1381 
z
M 1991 3584 
L 1991 3584 
z
" id="DejaVuSans-75" transform="scale(0.015625)"/>
       <path d="M 2631 2963 
Q 2534 3019 2420 3045 
Q 2306 3072 2169 3072 
Q 1681 3072 1420 2755 
Q 1159 2438 1159 1844 
L 1159 0 
L 581 0 
L 581 3500 
L 1159 3500 
L 1159 2956 
Q 1341 3275 1631 3429 
Q 1922 3584 2338 3584 
Q 2397 3584 2469 3576 
Q 2541 3569 2628 3553 
L 2631 2963 
z
" id="DejaVuSans-72" transform="scale(0.015625)"/>
       <path d="M 3328 2828 
Q 3544 3216 3844 3400 
Q 4144 3584 4550 3584 
Q 5097 3584 5394 3201 
Q 5691 2819 5691 2113 
L 5691 0 
L 5113 0 
L 5113 2094 
Q 5113 2597 4934 2840 
Q 4756 3084 4391 3084 
Q 3944 3084 3684 2787 
Q 3425 2491 3425 1978 
L 3425 0 
L 2847 0 
L 2847 2094 
Q 2847 2600 2669 2842 
Q 2491 3084 2119 3084 
Q 1678 3084 1418 2786 
Q 1159 2488 1159 1978 
L 1159 0 
L 581 0 
L 581 3500 
L 1159 3500 
L 1159 2956 
Q 1356 3278 1631 3431 
Q 1906 3584 2284 3584 
Q 2666 3584 2933 3390 
Q 3200 3197 3328 2828 
z
" id="DejaVuSans-6d" transform="scale(0.015625)"/>
       <path d="M 513 4856 
L 1013 4856 
Q 1481 4119 1714 3412 
Q 1947 2706 1947 2009 
Q 1947 1309 1714 600 
Q 1481 -109 1013 -844 
L 513 -844 
Q 928 -128 1133 580 
Q 1338 1288 1338 2009 
Q 1338 2731 1133 3434 
Q 928 4138 513 4856 
z
" id="DejaVuSans-29" transform="scale(0.015625)"/>
      </defs>
      <use xlink:href="#DejaVuSans-46"/>
      <use x="48.394531" xlink:href="#DejaVuSans-61"/>
      <use x="109.673828" xlink:href="#DejaVuSans-6c"/>
      <use x="137.457031" xlink:href="#DejaVuSans-73"/>
      <use x="189.556641" xlink:href="#DejaVuSans-65"/>
      <use x="251.080078" xlink:href="#DejaVuSans-20"/>
      <use x="282.867188" xlink:href="#DejaVuSans-50"/>
      <use x="339.544922" xlink:href="#DejaVuSans-6f"/>
      <use x="400.726562" xlink:href="#DejaVuSans-73"/>
      <use x="452.826172" xlink:href="#DejaVuSans-69"/>
      <use x="480.609375" xlink:href="#DejaVuSans-74"/>
      <use x="519.818359" xlink:href="#DejaVuSans-69"/>
      <use x="547.601562" xlink:href="#DejaVuSans-76"/>
      <use x="606.78125" xlink:href="#DejaVuSans-65"/>
      <use x="668.304688" xlink:href="#DejaVuSans-20"/>
      <use x="700.091797" xlink:href="#DejaVuSans-52"/>
      <use x="767.324219" xlink:href="#DejaVuSans-61"/>
      <use x="828.603516" xlink:href="#DejaVuSans-74"/>
      <use x="867.8125" xlink:href="#DejaVuSans-65"/>
      <use x="929.335938" xlink:href="#DejaVuSans-20"/>
      <use x="961.123047" xlink:href="#DejaVuSans-28"/>
      <use x="1000.136719" xlink:href="#DejaVuSans-50"/>
      <use x="1056.814453" xlink:href="#DejaVuSans-6f"/>
      <use x="1117.996094" xlink:href="#DejaVuSans-73"/>
      <use x="1170.095703" xlink:href="#DejaVuSans-69"/>
      <use x="1197.878906" xlink:href="#DejaVuSans-74"/>
      <use x="1237.087891" xlink:href="#DejaVuSans-69"/>
      <use x="1264.871094" xlink:href="#DejaVuSans-76"/>
      <use x="1324.050781" xlink:href="#DejaVuSans-65"/>
      <use x="1385.574219" xlink:href="#DejaVuSans-20"/>
      <use x="1417.361328" xlink:href="#DejaVuSans-6c"/>
      <use x="1445.144531" xlink:href="#DejaVuSans-61"/>
      <use x="1506.423828" xlink:href="#DejaVuSans-62"/>
      <use x="1569.900391" xlink:href="#DejaVuSans-65"/>
      <use x="1631.423828" xlink:href="#DejaVuSans-6c"/>
      <use x="1659.207031" xlink:href="#DejaVuSans-3a"/>
      <use x="1692.898438" xlink:href="#DejaVuSans-20"/>
      <use x="1724.685547" xlink:href="#DejaVuSans-4e"/>
      <use x="1799.490234" xlink:href="#DejaVuSans-65"/>
      <use x="1861.013672" xlink:href="#DejaVuSans-75"/>
      <use x="1924.392578" xlink:href="#DejaVuSans-72"/>
      <use x="1963.255859" xlink:href="#DejaVuSans-6f"/>
      <use x="2024.4375" xlink:href="#DejaVuSans-6d"/>
      <use x="2121.849609" xlink:href="#DejaVuSans-61"/>
      <use x="2183.128906" xlink:href="#DejaVuSans-29"/>
     </g>
    </g>
   </g>
   <g id="matplotlib.axis_2">
    <g id="ytick_1">
     <g id="line2d_7">
      <path clip-path="url(#p79d33e2852)" d="M 66.2638 289.951091 
L 583.0431 289.951091 
" style="fill:none;stroke:#cccccc;stroke-linecap:round;stroke-width:0.8;"/>
     </g>
     <g id="text_8">
      <!-- 0.0 -->
      <g style="fill:#262626;" transform="translate(35.5722 295.300391)scale(0.1408 -0.1408)">
       <use xlink:href="#DejaVuSans-30"/>
       <use x="63.623047" xlink:href="#DejaVuSans-2e"/>
       <use x="95.410156" xlink:href="#DejaVuSans-30"/>
      </g>
     </g>
    </g>
    <g id="ytick_2">
     <g id="line2d_8">
      <path clip-path="url(#p79d33e2852)" d="M 66.2638 241.310655 
L 583.0431 241.310655 
" style="fill:none;stroke:#cccccc;stroke-linecap:round;stroke-width:0.8;"/>
     </g>
     <g id="text_9">
      <!-- 0.2 -->
      <g style="fill:#262626;" transform="translate(35.5722 246.659955)scale(0.1408 -0.1408)">
       <use xlink:href="#DejaVuSans-30"/>
       <use x="63.623047" xlink:href="#DejaVuSans-2e"/>
       <use x="95.410156" xlink:href="#DejaVuSans-32"/>
      </g>
     </g>
    </g>
    <g id="ytick_3">
     <g id="line2d_9">
      <path clip-path="url(#p79d33e2852)" d="M 66.2638 192.670218 
L 583.0431 192.670218 
" style="fill:none;stroke:#cccccc;stroke-linecap:round;stroke-width:0.8;"/>
     </g>
     <g id="text_10">
      <!-- 0.4 -->
      <g style="fill:#262626;" transform="translate(35.5722 198.019518)scale(0.1408 -0.1408)">
       <use xlink:href="#DejaVuSans-30"/>
       <use x="63.623047" xlink:href="#DejaVuSans-2e"/>
       <use x="95.410156" xlink:href="#DejaVuSans-34"/>
      </g>
     </g>
    </g>
    <g id="ytick_4">
     <g id="line2d_10">
      <path clip-path="url(#p79d33e2852)" d="M 66.2638 144.029782 
L 583.0431 144.029782 
" style="fill:none;stroke:#cccccc;stroke-linecap:round;stroke-width:0.8;"/>
     </g>
     <g id="text_11">
      <!-- 0.6 -->
      <g style="fill:#262626;" transform="translate(35.5722 149.379082)scale(0.1408 -0.1408)">
       <use xlink:href="#DejaVuSans-30"/>
       <use x="63.623047" xlink:href="#DejaVuSans-2e"/>
       <use x="95.410156" xlink:href="#DejaVuSans-36"/>
      </g>
     </g>
    </g>
    <g id="ytick_5">
     <g id="line2d_11">
      <path clip-path="url(#p79d33e2852)" d="M 66.2638 95.389345 
L 583.0431 95.389345 
" style="fill:none;stroke:#cccccc;stroke-linecap:round;stroke-width:0.8;"/>
     </g>
     <g id="text_12">
      <!-- 0.8 -->
      <g style="fill:#262626;" transform="translate(35.5722 100.738645)scale(0.1408 -0.1408)">
       <use xlink:href="#DejaVuSans-30"/>
       <use x="63.623047" xlink:href="#DejaVuSans-2e"/>
       <use x="95.410156" xlink:href="#DejaVuSans-38"/>
      </g>
     </g>
    </g>
    <g id="ytick_6">
     <g id="line2d_12">
      <path clip-path="url(#p79d33e2852)" d="M 66.2638 46.748909 
L 583.0431 46.748909 
" style="fill:none;stroke:#cccccc;stroke-linecap:round;stroke-width:0.8;"/>
     </g>
     <g id="text_13">
      <!-- 1.0 -->
      <g style="fill:#262626;" transform="translate(35.5722 52.098209)scale(0.1408 -0.1408)">
       <use xlink:href="#DejaVuSans-31"/>
       <use x="63.623047" xlink:href="#DejaVuSans-2e"/>
       <use x="95.410156" xlink:href="#DejaVuSans-30"/>
      </g>
     </g>
    </g>
    <g id="text_14">
     <!-- True Positive Rate (Positive label: Neuroma) -->
     <g style="fill:#262626;" transform="translate(28.3778 336.0356)rotate(-90)scale(0.1536 -0.1536)">
      <defs>
       <path d="M -19 4666 
L 3928 4666 
L 3928 4134 
L 2272 4134 
L 2272 0 
L 1638 0 
L 1638 4134 
L -19 4134 
L -19 4666 
z
" id="DejaVuSans-54" transform="scale(0.015625)"/>
      </defs>
      <use xlink:href="#DejaVuSans-54"/>
      <use x="46.333984" xlink:href="#DejaVuSans-72"/>
      <use x="87.447266" xlink:href="#DejaVuSans-75"/>
      <use x="150.826172" xlink:href="#DejaVuSans-65"/>
      <use x="212.349609" xlink:href="#DejaVuSans-20"/>
      <use x="244.136719" xlink:href="#DejaVuSans-50"/>
      <use x="300.814453" xlink:href="#DejaVuSans-6f"/>
      <use x="361.996094" xlink:href="#DejaVuSans-73"/>
      <use x="414.095703" xlink:href="#DejaVuSans-69"/>
      <use x="441.878906" xlink:href="#DejaVuSans-74"/>
      <use x="481.087891" xlink:href="#DejaVuSans-69"/>
      <use x="508.871094" xlink:href="#DejaVuSans-76"/>
      <use x="568.050781" xlink:href="#DejaVuSans-65"/>
      <use x="629.574219" xlink:href="#DejaVuSans-20"/>
      <use x="661.361328" xlink:href="#DejaVuSans-52"/>
      <use x="728.59375" xlink:href="#DejaVuSans-61"/>
      <use x="789.873047" xlink:href="#DejaVuSans-74"/>
      <use x="829.082031" xlink:href="#DejaVuSans-65"/>
      <use x="890.605469" xlink:href="#DejaVuSans-20"/>
      <use x="922.392578" xlink:href="#DejaVuSans-28"/>
      <use x="961.40625" xlink:href="#DejaVuSans-50"/>
      <use x="1018.083984" xlink:href="#DejaVuSans-6f"/>
      <use x="1079.265625" xlink:href="#DejaVuSans-73"/>
      <use x="1131.365234" xlink:href="#DejaVuSans-69"/>
      <use x="1159.148438" xlink:href="#DejaVuSans-74"/>
      <use x="1198.357422" xlink:href="#DejaVuSans-69"/>
      <use x="1226.140625" xlink:href="#DejaVuSans-76"/>
      <use x="1285.320312" xlink:href="#DejaVuSans-65"/>
      <use x="1346.84375" xlink:href="#DejaVuSans-20"/>
      <use x="1378.630859" xlink:href="#DejaVuSans-6c"/>
      <use x="1406.414062" xlink:href="#DejaVuSans-61"/>
      <use x="1467.693359" xlink:href="#DejaVuSans-62"/>
      <use x="1531.169922" xlink:href="#DejaVuSans-65"/>
      <use x="1592.693359" xlink:href="#DejaVuSans-6c"/>
      <use x="1620.476562" xlink:href="#DejaVuSans-3a"/>
      <use x="1654.167969" xlink:href="#DejaVuSans-20"/>
      <use x="1685.955078" xlink:href="#DejaVuSans-4e"/>
      <use x="1760.759766" xlink:href="#DejaVuSans-65"/>
      <use x="1822.283203" xlink:href="#DejaVuSans-75"/>
      <use x="1885.662109" xlink:href="#DejaVuSans-72"/>
      <use x="1924.525391" xlink:href="#DejaVuSans-6f"/>
      <use x="1985.707031" xlink:href="#DejaVuSans-6d"/>
      <use x="2083.119141" xlink:href="#DejaVuSans-61"/>
      <use x="2144.398438" xlink:href="#DejaVuSans-29"/>
     </g>
    </g>
   </g>
   <g id="line2d_13">
    <path clip-path="url(#p79d33e2852)" d="M 89.753768 289.951091 
L 89.794494 286.023602 
L 89.893401 280.434484 
L 89.969035 277.262281 
L 90.073759 272.579506 
L 90.399568 263.213957 
L 90.446113 262.156556 
L 90.812648 252.186777 
L 91.196637 243.727571 
L 91.301362 242.519113 
L 91.45263 238.440567 
L 91.504992 237.836338 
L 91.778439 230.283475 
L 92.005342 226.053872 
L 92.464966 216.839379 
L 92.494056 216.839379 
L 92.755867 212.760833 
L 92.872227 212.005547 
L 93.180582 206.416428 
L 93.232945 206.114314 
L 93.59948 199.769909 
L 93.727476 198.410394 
L 93.867109 195.389249 
L 94.024195 191.159646 
L 94.088194 190.404359 
L 94.227826 188.289558 
L 94.262734 188.289558 
L 94.681632 182.851497 
L 95.176164 176.960264 
L 95.309978 174.39229 
L 95.385612 173.788061 
L 96.45031 161.401366 
L 96.578307 160.343965 
L 97.259015 153.848503 
L 97.375375 152.640045 
L 97.474282 150.978416 
L 97.532462 150.978416 
L 97.788455 148.108328 
L 97.881543 147.655156 
L 98.044448 146.295641 
L 98.114264 146.295641 
L 98.428437 144.482954 
L 98.474981 144.482954 
L 98.71352 143.425553 
L 99.085874 139.498064 
L 99.138236 139.498064 
L 99.306958 137.232205 
L 99.580405 135.268461 
L 99.615313 135.268461 
L 100.348384 130.736743 
L 100.488017 129.981457 
L 100.86037 127.866655 
L 100.88946 127.866655 
L 101.157089 126.356083 
L 101.488716 124.241281 
L 101.500352 124.241281 
L 102.00652 120.766964 
L 102.134516 120.766964 
L 102.268331 118.954277 
L 102.4196 117.745819 
L 102.471962 117.745819 
L 102.762863 116.386304 
L 102.838497 116.235247 
L 102.954857 115.47996 
L 103.402845 112.911987 
L 103.466843 112.911987 
L 103.577386 112.307758 
L 103.629748 112.307758 
L 103.815925 111.854586 
L 104.409363 108.984498 
L 104.543177 108.682384 
L 104.688628 108.682384 
L 104.903894 107.77604 
L 105.177341 106.416525 
L 105.316974 106.416525 
L 105.712599 105.359124 
L 105.805688 105.359124 
L 105.997682 104.603838 
L 106.090771 104.301724 
L 106.224585 103.39538 
L 106.585302 101.884807 
L 106.754025 101.582693 
L 106.858749 101.582693 
L 107.010018 100.676349 
L 107.097288 100.525292 
L 107.254375 99.921063 
L 107.300919 99.921063 
L 107.417279 99.467891 
L 107.510368 99.467891 
L 107.743089 98.410491 
L 107.841995 98.410491 
L 108.06308 97.957319 
L 108.167804 97.957319 
L 108.353981 96.899918 
L 108.406343 96.899918 
L 108.452887 96.295689 
L 108.569248 96.295689 
L 108.62161 95.993574 
L 108.749606 95.238288 
L 109.156868 94.02983 
L 109.20923 94.02983 
L 109.610673 93.274544 
L 109.76776 93.274544 
L 109.919028 92.972429 
L 110.017935 92.972429 
L 110.960454 90.253399 
L 111.053542 90.253399 
L 111.55971 89.498112 
L 111.757523 88.591769 
L 112.141512 88.591769 
L 112.217147 88.440712 
L 112.339325 87.836483 
L 112.606954 87.534368 
L 112.636044 87.534368 
L 112.857129 87.081196 
L 113.130576 86.628025 
L 113.270208 86.628025 
L 113.805466 85.872738 
L 114.026551 85.872738 
L 114.142911 85.721681 
L 114.398904 85.721681 
L 114.445449 85.419567 
L 114.608353 85.419567 
L 114.76544 85.268509 
L 114.817802 85.268509 
L 114.951616 84.815338 
L 115.003979 84.815338 
L 115.201791 84.513223 
L 115.387968 84.362166 
L 115.481056 84.362166 
L 115.574145 84.211109 
L 115.661415 84.211109 
L 115.830138 84.060051 
L 115.888318 84.060051 
L 116.062858 83.757937 
L 117.005378 82.700536 
L 117.133374 82.700536 
L 117.412639 82.096307 
L 117.814083 82.096307 
L 118.413339 80.434677 
L 118.483155 80.434677 
L 118.64606 79.981505 
L 119.070775 79.377276 
L 119.163863 79.377276 
L 119.361676 78.924105 
L 119.530399 78.924105 
L 119.664213 78.470933 
L 120.176199 77.715647 
L 120.420556 77.262475 
L 120.618369 77.262475 
L 121.077992 76.809303 
L 121.322349 76.809303 
L 121.735429 76.507188 
L 121.944877 75.902959 
L 122.05542 75.902959 
L 122.282323 75.29873 
L 122.602314 75.29873 
L 122.712856 74.845559 
L 122.829217 74.845559 
L 122.916487 74.694501 
L 123.056119 74.694501 
L 123.219024 74.392387 
L 123.381929 74.392387 
L 123.748464 73.939215 
L 124.016093 73.183929 
L 124.149907 73.183929 
L 124.522261 72.881814 
L 124.87716 72.881814 
L 125.040064 72.730757 
L 125.488052 72.730757 
L 125.790589 72.5797 
L 126.401481 72.5797 
L 126.686564 72.126528 
L 127.181096 72.126528 
L 128.426153 71.371242 
L 128.577421 71.371242 
L 128.87414 71.220185 
L 129.205767 71.220185 
L 129.409398 70.767013 
L 129.770115 70.767013 
L 129.898112 70.615956 
L 130.061016 70.615956 
L 130.468278 70.464898 
L 130.695181 70.464898 
L 130.986082 69.860669 
L 131.329345 69.860669 
L 131.649336 69.709612 
L 131.980963 69.709612 
L 133.080569 68.954326 
L 133.231838 68.652211 
L 133.383106 68.652211 
L 133.674007 68.501154 
L 133.848548 68.501154 
L 134.377988 68.047982 
L 134.936518 68.047982 
L 135.029606 67.745868 
L 135.221601 67.745868 
L 135.40196 67.59481 
L 135.63468 67.59481 
L 138.287698 65.328952 
L 138.555327 65.328952 
L 139.410576 64.724723 
L 140.63236 64.724723 
L 141.004714 64.573665 
L 141.214162 64.573665 
L 141.382885 64.422608 
L 142.040321 64.422608 
L 142.377767 64.271551 
L 143.471554 64.271551 
L 143.570461 64.120494 
L 144.204625 63.818379 
L 144.827153 63.818379 
L 145.211143 63.667322 
L 145.467136 63.667322 
L 145.664948 63.516264 
L 145.903487 63.516264 
L 146.078028 63.21415 
L 146.334021 63.063093 
L 146.514379 62.760978 
L 147.421991 62.760978 
L 147.701256 62.458864 
L 148.312148 62.458864 
L 148.789225 62.307806 
L 150.022646 62.307806 
L 150.755717 61.854635 
L 150.982619 61.854635 
L 151.174614 61.703577 
L 151.482969 61.703577 
L 151.65751 61.55252 
L 152.210222 61.55252 
L 152.536031 61.250406 
L 153.624001 61.250406 
L 154.153441 60.948291 
L 154.380344 60.948291 
L 154.572338 60.797234 
L 154.851603 60.797234 
L 155.253047 60.646177 
L 155.666126 60.646177 
L 156.416651 60.344062 
L 156.649372 60.344062 
L 157.312626 60.041948 
L 157.539529 60.041948 
L 157.754796 59.739833 
L 158.272599 59.739833 
L 159.174393 58.984547 
L 159.913281 58.984547 
L 160.413631 58.83349 
L 161.263062 58.83349 
L 161.507419 58.531375 
L 161.850682 58.531375 
L 162.525573 58.078203 
L 163.822991 58.078203 
L 164.439702 57.776089 
L 164.951687 57.776089 
L 165.498581 57.473974 
L 167.837426 57.473974 
L 168.017784 57.322917 
L 168.878851 57.020802 
L 171.328238 57.020802 
L 171.555141 56.869745 
L 172.026401 56.869745 
L 172.456934 56.718688 
L 172.992192 56.567631 
L 173.533268 56.567631 
L 174.603784 56.265516 
L 178.420406 56.265516 
L 179.665462 55.812344 
L 180.823248 55.812344 
L 181.445776 55.661287 
L 182.661743 55.661287 
L 183.13882 55.51023 
L 183.499538 55.51023 
L 183.732259 55.208115 
L 184.930771 55.208115 
L 185.518391 55.057058 
L 185.850018 55.057058 
L 186.065285 54.906001 
L 187.979414 54.906001 
L 188.369221 54.754944 
L 188.660122 54.452829 
L 191.097873 54.452829 
L 191.761127 54.301772 
L 195.275212 54.301772 
L 195.554477 54.150715 
L 196.188641 54.150715 
L 196.863532 53.999657 
L 198.114406 53.999657 
L 198.376217 53.8486 
L 198.958019 53.8486 
L 199.429279 53.697543 
L 199.632909 53.395428 
L 202.594282 53.395428 
L 203.18772 53.244371 
L 204.473503 53.244371 
L 205.177483 53.093314 
L 206.387632 53.093314 
L 207.324333 52.791199 
L 208.179582 52.791199 
L 208.895199 52.640142 
L 209.279188 52.640142 
L 209.471183 52.489085 
L 211.315495 52.489085 
L 211.693667 52.338028 
L 211.938024 52.035913 
L 220.228703 52.035913 
L 220.484696 51.884856 
L 221.875203 51.884856 
L 222.474459 51.733799 
L 225.680189 51.733799 
L 226.314353 51.582741 
L 227.489593 51.582741 
L 228.187756 51.280627 
L 229.217545 51.280627 
L 229.706259 50.827455 
L 230.608052 50.827455 
L 231.637842 50.52534 
L 234.023231 50.52534 
L 234.657395 50.374283 
L 235.419556 50.374283 
L 236.14099 49.921111 
L 237.252232 49.921111 
L 237.525679 49.770054 
L 238.299476 49.770054 
L 239.026729 49.618997 
L 239.655075 49.618997 
L 240.289239 49.46794 
L 241.074672 49.316882 
L 242.127734 49.316882 
L 242.348818 49.165825 
L 243.052799 49.165825 
L 243.384426 49.014768 
L 243.657873 49.014768 
L 244.030226 48.561596 
L 244.268765 48.561596 
L 244.926202 48.410539 
L 249.755159 48.410539 
L 250.459139 48.259482 
L 251.803102 48.259482 
L 253.234335 47.957367 
L 254.520118 47.957367 
L 255.1601 47.80631 
L 269.74006 47.80631 
L 270.316045 47.655253 
L 276.343514 47.655253 
L 277.722385 47.353138 
L 290.632573 47.353138 
L 291.231829 47.202081 
L 298.085458 47.202081 
L 298.545082 47.051024 
L 299.237426 46.899966 
L 316.871847 46.899966 
L 317.558374 46.748909 
L 559.553132 46.748909 
L 559.553132 46.748909 
" style="fill:none;stroke:#0173b2;stroke-linecap:round;stroke-width:1.2;"/>
   </g>
   <g id="line2d_14">
    <path clip-path="url(#p79d33e2852)" d="M 89.753768 289.951091 
L 89.846353 282.826027 
L 89.869499 282.826027 
L 89.962084 275.700963 
L 90.008377 275.700963 
L 90.054669 273.325942 
L 90.124108 273.325942 
L 90.170401 267.625891 
L 90.286132 267.625891 
L 90.286132 267.150886 
L 90.494448 267.150886 
L 90.587033 262.400844 
L 90.610179 262.400844 
L 90.702764 259.550818 
L 90.725911 259.550818 
L 90.795349 255.750784 
L 90.957373 255.750784 
L 91.049958 253.850767 
L 91.073104 253.850767 
L 91.142543 252.900759 
L 91.188835 252.900759 
L 91.28142 251.000741 
L 91.397152 251.000741 
L 91.489737 243.875678 
L 91.512883 243.875678 
L 91.605468 241.500656 
L 91.628614 241.500656 
L 91.721199 238.650631 
L 91.744345 238.650631 
L 91.790638 237.225618 
L 91.883223 237.225618 
L 91.975808 235.800605 
L 92.045247 235.800605 
L 92.114685 234.375592 
L 92.184124 234.375592 
L 92.253563 232.475575 
L 92.299855 232.475575 
L 92.346148 230.100554 
L 92.461879 230.100554 
L 92.531318 228.675541 
L 92.57761 228.675541 
L 92.670195 225.825516 
L 92.855365 225.825516 
L 92.855365 225.350511 
L 92.994243 225.350511 
L 93.017389 223.925499 
L 93.109974 223.925499 
L 93.202559 220.600469 
L 93.295144 220.600469 
L 93.341436 218.700452 
L 93.526606 218.700452 
L 93.619191 216.800435 
L 93.665484 216.800435 
L 93.758069 215.850426 
L 93.781215 215.850426 
L 93.8738 214.900418 
L 93.896946 214.900418 
L 93.989531 213.475405 
L 94.05897 213.475405 
L 94.128409 211.100384 
L 94.24414 211.100384 
L 94.24414 210.625379 
L 94.42931 210.625379 
L 94.521895 207.775354 
L 94.660772 207.775354 
L 94.753357 206.825345 
L 94.79965 206.825345 
L 94.869089 205.400332 
L 94.915381 205.400332 
L 94.915381 204.925328 
L 95.077405 204.925328 
L 95.146844 203.500315 
L 95.239429 203.500315 
L 95.285721 202.550307 
L 95.679207 202.550307 
L 95.7255 201.600298 
L 96.049547 201.600298 
L 96.09584 199.225277 
L 96.211571 199.225277 
L 96.211571 198.750273 
L 96.327302 198.750273 
L 96.419887 197.800264 
L 96.535618 197.800264 
L 96.605057 196.850256 
L 97.02169 196.850256 
L 97.044836 195.425243 
L 97.137421 195.425243 
L 97.137421 194.475234 
L 97.461468 194.475234 
L 97.554053 193.050222 
L 97.577199 193.050222 
L 97.577199 192.575217 
L 97.692931 192.575217 
L 97.785516 190.6752 
L 97.831808 190.6752 
L 97.878101 188.300179 
L 97.947539 188.300179 
L 97.947539 186.400162 
L 98.109563 186.400162 
L 98.202148 185.450153 
L 98.248441 185.450153 
L 98.341026 184.025141 
L 98.827097 184.025141 
L 98.896536 181.650119 
L 98.942828 181.650119 
L 98.942828 181.175115 
L 99.081705 181.175115 
L 99.127998 180.225107 
L 99.266875 180.225107 
L 99.35946 178.325089 
L 99.54463 178.325089 
L 99.54463 177.850085 
L 99.776093 177.850085 
L 99.868678 176.900077 
L 99.91497 176.900077 
L 99.91497 176.425072 
L 100.076994 176.425072 
L 100.076994 175.950068 
L 100.239018 175.950068 
L 100.262164 174.525055 
L 100.401042 174.525055 
L 100.401042 174.050051 
L 100.794528 174.050051 
L 100.887113 173.100043 
L 101.072283 173.100043 
L 101.164868 171.67503 
L 101.21116 171.67503 
L 101.21116 171.200026 
L 101.512061 171.200026 
L 101.604646 170.250017 
L 101.650939 170.250017 
L 101.743524 169.300009 
L 102.067571 169.300009 
L 102.160156 167.874996 
L 102.32218 167.874996 
L 102.32218 167.399991 
L 102.715666 167.399991 
L 102.808251 165.974979 
L 102.970275 165.974979 
L 102.993421 165.02497 
L 103.155445 165.02497 
L 103.24803 163.599957 
L 103.294322 163.599957 
L 103.294322 163.124953 
L 103.548931 163.124953 
L 103.548931 162.649949 
L 103.826686 162.649949 
L 103.826686 162.174945 
L 104.150733 162.174945 
L 104.150733 161.69994 
L 104.35905 161.69994 
L 104.35905 161.224936 
L 104.636805 161.224936 
L 104.636805 160.749932 
L 104.798828 160.749932 
L 104.821975 159.324919 
L 104.937706 159.324919 
L 104.937706 158.849915 
L 105.840409 158.849915 
L 105.886702 157.424902 
L 106.465358 157.424902 
L 106.465358 156.474893 
L 106.604236 156.474893 
L 106.604236 155.999889 
L 107.159745 155.999889 
L 107.159745 155.524885 
L 107.321769 155.524885 
L 107.321769 154.574876 
L 107.4375 154.574876 
L 107.506939 153.624868 
L 108.016157 153.624868 
L 108.016157 153.149864 
L 108.386497 153.149864 
L 108.479082 151.724851 
L 108.872568 151.724851 
L 108.895714 150.774842 
L 109.057738 150.774842 
L 109.080884 149.824834 
L 109.242908 149.824834 
L 109.312346 148.874825 
L 109.497516 148.874825 
L 109.497516 147.924817 
L 109.636394 147.924817 
L 109.636394 147.449813 
L 109.821564 147.449813 
L 109.821564 146.974808 
L 110.191904 146.974808 
L 110.191904 146.499804 
L 110.423366 146.499804 
L 110.423366 146.0248 
L 110.562244 146.0248 
L 110.631682 144.124783 
L 110.747414 144.124783 
L 110.77056 143.174774 
L 111.117754 143.174774 
L 111.117754 142.69977 
L 111.765849 142.69977 
L 111.765849 142.224766 
L 112.344505 142.224766 
L 112.344505 141.749761 
L 112.529675 141.749761 
L 112.62226 140.799753 
L 112.645406 140.799753 
L 112.645406 140.324749 
L 113.154623 140.324749 
L 113.154623 139.849744 
L 113.270355 139.849744 
L 113.270355 139.37474 
L 113.524963 139.37474 
L 113.524963 138.899736 
L 113.733279 138.899736 
L 113.779572 137.949727 
L 113.918449 137.949727 
L 113.918449 137.474723 
L 114.034181 137.474723 
L 114.080473 136.524714 
L 114.566544 136.524714 
L 114.566544 136.04971 
L 114.983177 136.04971 
L 114.983177 135.574706 
L 115.122054 135.574706 
L 115.122054 135.099702 
L 115.237785 135.099702 
L 115.237785 134.624697 
L 115.70071 134.624697 
L 115.70071 134.149693 
L 115.88588 134.149693 
L 115.88588 133.674689 
L 116.510829 133.674689 
L 116.510829 133.199685 
L 116.788584 133.199685 
L 116.788584 132.72468 
L 117.691288 132.72468 
L 117.691288 132.249676 
L 118.269944 132.249676 
L 118.316236 131.299668 
L 118.385675 131.299668 
L 118.47826 129.874655 
L 118.66343 129.874655 
L 118.66343 129.399651 
L 118.918039 129.399651 
L 118.918039 128.924646 
L 120.098497 128.924646 
L 120.14479 127.974638 
L 120.538276 127.974638 
L 120.538276 127.499634 
L 121.001201 127.499634 
L 121.001201 127.024629 
L 121.209517 127.024629 
L 121.209517 126.549625 
L 121.741881 126.549625 
L 121.834466 125.124612 
L 122.158513 125.124612 
L 122.181659 123.699599 
L 123.871335 123.699599 
L 123.871335 123.224595 
L 124.843478 123.224595 
L 124.843478 122.749591 
L 125.236964 122.749591 
L 125.236964 122.274587 
L 125.885059 122.274587 
L 125.885059 121.799582 
L 126.047083 121.799582 
L 126.047083 121.324578 
L 126.324838 121.324578 
L 126.324838 120.849574 
L 126.764616 120.849574 
L 126.810909 119.899565 
L 127.621027 119.899565 
L 127.621027 118.949557 
L 127.898782 118.949557 
L 127.898782 117.999548 
L 128.269122 117.999548 
L 128.315415 117.04954 
L 128.662608 117.04954 
L 128.662608 116.574536 
L 128.847778 116.574536 
L 128.847778 116.099531 
L 129.426435 116.099531 
L 129.426435 115.624527 
L 129.611605 115.624527 
L 129.611605 115.149523 
L 130.514308 115.149523 
L 130.514308 114.674518 
L 130.930941 114.674518 
L 130.930941 114.199514 
L 131.139257 114.199514 
L 131.139257 113.72451 
L 131.48645 113.72451 
L 131.48645 113.249506 
L 131.717913 113.249506 
L 131.717913 112.299497 
L 132.528032 112.299497 
L 132.528032 111.824493 
L 132.643763 111.824493 
L 132.643763 111.349489 
L 132.898372 111.349489 
L 132.898372 110.874484 
L 133.014103 110.874484 
L 133.014103 110.39948 
L 133.754783 110.39948 
L 133.754783 109.924476 
L 134.541755 109.924476 
L 134.541755 109.449472 
L 135.120411 109.449472 
L 135.120411 108.974467 
L 137.527621 108.974467 
L 137.527621 108.499463 
L 138.013692 108.499463 
L 138.013692 108.024459 
L 138.268301 108.024459 
L 138.268301 107.549455 
L 139.356174 107.549455 
L 139.356174 107.07445 
L 141.254166 107.07445 
L 141.254166 106.599446 
L 141.41619 106.599446 
L 141.41619 106.124442 
L 141.717091 106.124442 
L 141.763384 105.174433 
L 142.71238 105.174433 
L 142.71238 104.699429 
L 143.777107 104.699429 
L 143.777107 104.224425 
L 143.892839 104.224425 
L 143.892839 103.74942 
L 144.031716 103.74942 
L 144.031716 103.274416 
L 144.402056 103.274416 
L 144.402056 102.799412 
L 147.295337 102.799412 
L 147.295337 101.849403 
L 147.480507 101.849403 
L 147.480507 101.374399 
L 149.170183 101.374399 
L 149.170183 100.899395 
L 149.563669 100.899395 
L 149.563669 100.424391 
L 150.42008 100.424391 
L 150.42008 99.949386 
L 150.767274 99.949386 
L 150.767274 99.474382 
L 151.137614 99.474382 
L 151.137614 98.999378 
L 153.915163 98.999378 
L 153.915163 98.524374 
L 154.424381 98.524374 
L 154.424381 98.049369 
L 154.702136 98.049369 
L 154.702136 97.574365 
L 155.790009 97.574365 
L 155.790009 97.099361 
L 155.998325 97.099361 
L 155.998325 96.624357 
L 157.3871 96.624357 
L 157.3871 96.149352 
L 157.75744 96.149352 
L 157.75744 95.674348 
L 159.493409 95.674348 
L 159.585994 94.724339 
L 159.655432 94.724339 
L 159.655432 94.249335 
L 159.956334 94.249335 
L 159.956334 93.774331 
L 162.201519 93.774331 
L 162.270958 92.824322 
L 162.872761 92.824322 
L 162.872761 92.349318 
L 167.108524 92.349318 
L 167.108524 91.874314 
L 167.31684 91.874314 
L 167.31684 91.39931 
L 168.150105 91.39931 
L 168.150105 90.924305 
L 169.191686 90.924305 
L 169.191686 90.449301 
L 169.839781 90.449301 
L 169.839781 89.974297 
L 170.487876 89.974297 
L 170.487876 89.499293 
L 172.663623 89.499293 
L 172.663623 89.024288 
L 175.973536 89.024288 
L 175.973536 88.549284 
L 176.644777 88.549284 
L 176.644777 88.07428 
L 179.329742 88.07428 
L 179.329742 87.599276 
L 179.838959 87.599276 
L 179.838959 87.124271 
L 180.649078 87.124271 
L 180.649078 86.649267 
L 183.28775 86.649267 
L 183.28775 86.174263 
L 183.611797 86.174263 
L 183.611797 85.699259 
L 183.935845 85.699259 
L 183.935845 85.224254 
L 184.76911 85.224254 
L 184.76911 84.74925 
L 187.662391 84.74925 
L 187.662391 84.274246 
L 189.953869 84.274246 
L 189.977015 83.324237 
L 190.185331 83.324237 
L 190.185331 82.849233 
L 192.29164 82.849233 
L 192.29164 82.374229 
L 193.564683 82.374229 
L 193.634122 81.42422 
L 193.888731 81.42422 
L 193.888731 80.949216 
L 194.559972 80.949216 
L 194.559972 80.474212 
L 198.008763 80.474212 
L 198.008763 79.999207 
L 198.772589 79.999207 
L 198.772589 79.524203 
L 199.791024 79.524203 
L 199.791024 79.049199 
L 200.902044 79.049199 
L 200.902044 78.574195 
L 201.573285 78.574195 
L 201.573285 78.09919 
L 205.29983 78.09919 
L 205.29983 77.624186 
L 208.123672 77.624186 
L 208.123672 77.149182 
L 209.697617 77.149182 
L 209.697617 76.674178 
L 211.063246 76.674178 
L 211.063246 76.199173 
L 211.271562 76.199173 
L 211.271562 75.724169 
L 212.081681 75.724169 
L 212.104827 74.774161 
L 212.359435 74.774161 
L 212.359435 74.299156 
L 212.567752 74.299156 
L 212.567752 73.824152 
L 214.465744 73.824152 
L 214.465744 73.349148 
L 220.182867 73.349148 
L 220.229159 72.399139 
L 221.432764 72.399139 
L 221.432764 71.924135 
L 222.960416 71.924135 
L 222.960416 71.449131 
L 224.302899 71.449131 
L 224.349191 70.499122 
L 226.478646 70.499122 
L 226.478646 70.024118 
L 227.219326 70.024118 
L 227.219326 69.549114 
L 228.214614 69.549114 
L 228.214614 69.074109 
L 233.584543 69.074109 
L 233.584543 68.599105 
L 239.023911 68.599105 
L 239.023911 68.124101 
L 241.986631 68.124101 
L 241.986631 67.649097 
L 244.856765 67.649097 
L 244.856765 67.174092 
L 247.819485 67.174092 
L 247.819485 66.699088 
L 260.457336 66.699088 
L 260.457336 65.74908 
L 262.679375 65.74908 
L 262.679375 65.274075 
L 264.276466 65.274075 
L 264.276466 64.799071 
L 266.66053 64.799071 
L 266.66053 64.324067 
L 268.558522 64.324067 
L 268.558522 63.849063 
L 271.868435 63.849063 
L 271.868435 63.374058 
L 275.571834 63.374058 
L 275.571834 62.899054 
L 276.914317 62.899054 
L 276.914317 62.42405 
L 284.089653 62.42405 
L 284.089653 61.949045 
L 285.848768 61.949045 
L 285.848768 61.474041 
L 288.603171 61.474041 
L 288.603171 60.999037 
L 293.000958 60.999037 
L 293.000958 60.524033 
L 301.194729 60.524033 
L 301.194729 60.049028 
L 302.375188 60.049028 
L 302.375188 59.574024 
L 303.833401 59.574024 
L 303.833401 59.09902 
L 304.250034 59.09902 
L 304.342619 58.149011 
L 305.592516 58.149011 
L 305.592516 57.674007 
L 310.962445 57.674007 
L 310.962445 57.199003 
L 311.217054 57.199003 
L 311.217054 56.723999 
L 328.368423 56.723999 
L 328.368423 56.248994 
L 332.326431 56.248994 
L 332.326431 55.77399 
L 332.858794 55.77399 
L 332.858794 55.298986 
L 334.479032 55.298986 
L 334.479032 54.823982 
L 339.941546 54.823982 
L 339.941546 54.348977 
L 342.510779 54.348977 
L 342.510779 53.873973 
L 355.310653 53.873973 
L 355.310653 53.398969 
L 367.879065 53.398969 
L 367.879065 52.923964 
L 396.534118 52.923964 
L 396.534118 52.44896 
L 417.967542 52.44896 
L 417.967542 51.973956 
L 420.189582 51.973956 
L 420.189582 51.498952 
L 430.767417 51.498952 
L 430.767417 51.023947 
L 440.280524 51.023947 
L 440.280524 50.548943 
L 440.836034 50.548943 
L 440.836034 50.073939 
L 446.784619 50.073939 
L 446.784619 49.598935 
L 457.084699 49.598935 
L 457.084699 49.12393 
L 457.362454 49.12393 
L 457.362454 48.648926 
L 475.647989 48.648926 
L 475.647989 48.173922 
L 485.184242 48.173922 
L 485.230535 47.223913 
L 508.585097 47.223913 
L 508.585097 46.748909 
L 559.553132 46.748909 
L 559.553132 46.748909 
" style="fill:none;stroke:#de8f05;stroke-linecap:round;stroke-width:1.2;"/>
   </g>
   <g id="patch_3">
    <path d="M 66.2638 302.1112 
L 66.2638 34.5888 
" style="fill:none;stroke:#cccccc;stroke-linecap:square;stroke-linejoin:miter;"/>
   </g>
   <g id="patch_4">
    <path d="M 583.0431 302.1112 
L 583.0431 34.5888 
" style="fill:none;stroke:#cccccc;stroke-linecap:square;stroke-linejoin:miter;"/>
   </g>
   <g id="patch_5">
    <path d="M 66.2638 302.1112 
L 583.0431 302.1112 
" style="fill:none;stroke:#cccccc;stroke-linecap:square;stroke-linejoin:miter;"/>
   </g>
   <g id="patch_6">
    <path d="M 66.2638 34.5888 
L 583.0431 34.5888 
" style="fill:none;stroke:#cccccc;stroke-linecap:square;stroke-linejoin:miter;"/>
   </g>
   <g id="text_15">
    <!-- Image-level ROC curve -->
    <g style="fill:#262626;" transform="translate(236.41985 28.5888)scale(0.1536 -0.1536)">
     <defs>
      <path d="M 628 4666 
L 1259 4666 
L 1259 0 
L 628 0 
L 628 4666 
z
" id="DejaVuSans-49" transform="scale(0.015625)"/>
      <path d="M 2906 1791 
Q 2906 2416 2648 2759 
Q 2391 3103 1925 3103 
Q 1463 3103 1205 2759 
Q 947 2416 947 1791 
Q 947 1169 1205 825 
Q 1463 481 1925 481 
Q 2391 481 2648 825 
Q 2906 1169 2906 1791 
z
M 3481 434 
Q 3481 -459 3084 -895 
Q 2688 -1331 1869 -1331 
Q 1566 -1331 1297 -1286 
Q 1028 -1241 775 -1147 
L 775 -588 
Q 1028 -725 1275 -790 
Q 1522 -856 1778 -856 
Q 2344 -856 2625 -561 
Q 2906 -266 2906 331 
L 2906 616 
Q 2728 306 2450 153 
Q 2172 0 1784 0 
Q 1141 0 747 490 
Q 353 981 353 1791 
Q 353 2603 747 3093 
Q 1141 3584 1784 3584 
Q 2172 3584 2450 3431 
Q 2728 3278 2906 2969 
L 2906 3500 
L 3481 3500 
L 3481 434 
z
" id="DejaVuSans-67" transform="scale(0.015625)"/>
      <path d="M 313 2009 
L 1997 2009 
L 1997 1497 
L 313 1497 
L 313 2009 
z
" id="DejaVuSans-2d" transform="scale(0.015625)"/>
      <path d="M 2522 4238 
Q 1834 4238 1429 3725 
Q 1025 3213 1025 2328 
Q 1025 1447 1429 934 
Q 1834 422 2522 422 
Q 3209 422 3611 934 
Q 4013 1447 4013 2328 
Q 4013 3213 3611 3725 
Q 3209 4238 2522 4238 
z
M 2522 4750 
Q 3503 4750 4090 4092 
Q 4678 3434 4678 2328 
Q 4678 1225 4090 567 
Q 3503 -91 2522 -91 
Q 1538 -91 948 565 
Q 359 1222 359 2328 
Q 359 3434 948 4092 
Q 1538 4750 2522 4750 
z
" id="DejaVuSans-4f" transform="scale(0.015625)"/>
      <path d="M 4122 4306 
L 4122 3641 
Q 3803 3938 3442 4084 
Q 3081 4231 2675 4231 
Q 1875 4231 1450 3742 
Q 1025 3253 1025 2328 
Q 1025 1406 1450 917 
Q 1875 428 2675 428 
Q 3081 428 3442 575 
Q 3803 722 4122 1019 
L 4122 359 
Q 3791 134 3420 21 
Q 3050 -91 2638 -91 
Q 1578 -91 968 557 
Q 359 1206 359 2328 
Q 359 3453 968 4101 
Q 1578 4750 2638 4750 
Q 3056 4750 3426 4639 
Q 3797 4528 4122 4306 
z
" id="DejaVuSans-43" transform="scale(0.015625)"/>
      <path d="M 3122 3366 
L 3122 2828 
Q 2878 2963 2633 3030 
Q 2388 3097 2138 3097 
Q 1578 3097 1268 2742 
Q 959 2388 959 1747 
Q 959 1106 1268 751 
Q 1578 397 2138 397 
Q 2388 397 2633 464 
Q 2878 531 3122 666 
L 3122 134 
Q 2881 22 2623 -34 
Q 2366 -91 2075 -91 
Q 1284 -91 818 406 
Q 353 903 353 1747 
Q 353 2603 823 3093 
Q 1294 3584 2113 3584 
Q 2378 3584 2631 3529 
Q 2884 3475 3122 3366 
z
" id="DejaVuSans-63" transform="scale(0.015625)"/>
     </defs>
     <use xlink:href="#DejaVuSans-49"/>
     <use x="29.492188" xlink:href="#DejaVuSans-6d"/>
     <use x="126.904297" xlink:href="#DejaVuSans-61"/>
     <use x="188.183594" xlink:href="#DejaVuSans-67"/>
     <use x="251.660156" xlink:href="#DejaVuSans-65"/>
     <use x="313.183594" xlink:href="#DejaVuSans-2d"/>
     <use x="349.267578" xlink:href="#DejaVuSans-6c"/>
     <use x="377.050781" xlink:href="#DejaVuSans-65"/>
     <use x="438.574219" xlink:href="#DejaVuSans-76"/>
     <use x="497.753906" xlink:href="#DejaVuSans-65"/>
     <use x="559.277344" xlink:href="#DejaVuSans-6c"/>
     <use x="587.060547" xlink:href="#DejaVuSans-20"/>
     <use x="618.847656" xlink:href="#DejaVuSans-52"/>
     <use x="688.330078" xlink:href="#DejaVuSans-4f"/>
     <use x="767.041016" xlink:href="#DejaVuSans-43"/>
     <use x="836.865234" xlink:href="#DejaVuSans-20"/>
     <use x="868.652344" xlink:href="#DejaVuSans-63"/>
     <use x="923.632812" xlink:href="#DejaVuSans-75"/>
     <use x="987.011719" xlink:href="#DejaVuSans-72"/>
     <use x="1028.125" xlink:href="#DejaVuSans-76"/>
     <use x="1087.304688" xlink:href="#DejaVuSans-65"/>
    </g>
   </g>
   <g id="legend_1">
    <g id="patch_7">
     <path d="M 396.3137 295.0712 
L 573.1871 295.0712 
Q 576.0031 295.0712 576.0031 292.2552 
L 576.0031 252.3296 
Q 576.0031 249.5136 573.1871 249.5136 
L 396.3137 249.5136 
Q 393.4977 249.5136 393.4977 252.3296 
L 393.4977 292.2552 
Q 393.4977 295.0712 396.3137 295.0712 
z
" style="fill:#ffffff;opacity:0.8;stroke:#cccccc;stroke-linejoin:miter;stroke-width:0.8;"/>
    </g>
    <g id="line2d_15">
     <path d="M 399.1297 260.9162 
L 427.2897 260.9162 
" style="fill:none;stroke:#0173b2;stroke-linecap:round;stroke-width:1.2;"/>
    </g>
    <g id="line2d_16"/>
    <g id="text_16">
     <!-- Tufts (AUC = 0.97) -->
     <g style="fill:#262626;" transform="translate(438.5537 265.8442)scale(0.1408 -0.1408)">
      <defs>
       <path d="M 2375 4863 
L 2375 4384 
L 1825 4384 
Q 1516 4384 1395 4259 
Q 1275 4134 1275 3809 
L 1275 3500 
L 2222 3500 
L 2222 3053 
L 1275 3053 
L 1275 0 
L 697 0 
L 697 3053 
L 147 3053 
L 147 3500 
L 697 3500 
L 697 3744 
Q 697 4328 969 4595 
Q 1241 4863 1831 4863 
L 2375 4863 
z
" id="DejaVuSans-66" transform="scale(0.015625)"/>
       <path d="M 2188 4044 
L 1331 1722 
L 3047 1722 
L 2188 4044 
z
M 1831 4666 
L 2547 4666 
L 4325 0 
L 3669 0 
L 3244 1197 
L 1141 1197 
L 716 0 
L 50 0 
L 1831 4666 
z
" id="DejaVuSans-41" transform="scale(0.015625)"/>
       <path d="M 556 4666 
L 1191 4666 
L 1191 1831 
Q 1191 1081 1462 751 
Q 1734 422 2344 422 
Q 2950 422 3222 751 
Q 3494 1081 3494 1831 
L 3494 4666 
L 4128 4666 
L 4128 1753 
Q 4128 841 3676 375 
Q 3225 -91 2344 -91 
Q 1459 -91 1007 375 
Q 556 841 556 1753 
L 556 4666 
z
" id="DejaVuSans-55" transform="scale(0.015625)"/>
       <path d="M 678 2906 
L 4684 2906 
L 4684 2381 
L 678 2381 
L 678 2906 
z
M 678 1631 
L 4684 1631 
L 4684 1100 
L 678 1100 
L 678 1631 
z
" id="DejaVuSans-3d" transform="scale(0.015625)"/>
       <path d="M 703 97 
L 703 672 
Q 941 559 1184 500 
Q 1428 441 1663 441 
Q 2288 441 2617 861 
Q 2947 1281 2994 2138 
Q 2813 1869 2534 1725 
Q 2256 1581 1919 1581 
Q 1219 1581 811 2004 
Q 403 2428 403 3163 
Q 403 3881 828 4315 
Q 1253 4750 1959 4750 
Q 2769 4750 3195 4129 
Q 3622 3509 3622 2328 
Q 3622 1225 3098 567 
Q 2575 -91 1691 -91 
Q 1453 -91 1209 -44 
Q 966 3 703 97 
z
M 1959 2075 
Q 2384 2075 2632 2365 
Q 2881 2656 2881 3163 
Q 2881 3666 2632 3958 
Q 2384 4250 1959 4250 
Q 1534 4250 1286 3958 
Q 1038 3666 1038 3163 
Q 1038 2656 1286 2365 
Q 1534 2075 1959 2075 
z
" id="DejaVuSans-39" transform="scale(0.015625)"/>
       <path d="M 525 4666 
L 3525 4666 
L 3525 4397 
L 1831 0 
L 1172 0 
L 2766 4134 
L 525 4134 
L 525 4666 
z
" id="DejaVuSans-37" transform="scale(0.015625)"/>
      </defs>
      <use xlink:href="#DejaVuSans-54"/>
      <use x="45.958984" xlink:href="#DejaVuSans-75"/>
      <use x="109.337891" xlink:href="#DejaVuSans-66"/>
      <use x="142.792969" xlink:href="#DejaVuSans-74"/>
      <use x="182.001953" xlink:href="#DejaVuSans-73"/>
      <use x="234.101562" xlink:href="#DejaVuSans-20"/>
      <use x="265.888672" xlink:href="#DejaVuSans-28"/>
      <use x="304.902344" xlink:href="#DejaVuSans-41"/>
      <use x="373.310547" xlink:href="#DejaVuSans-55"/>
      <use x="446.503906" xlink:href="#DejaVuSans-43"/>
      <use x="516.328125" xlink:href="#DejaVuSans-20"/>
      <use x="548.115234" xlink:href="#DejaVuSans-3d"/>
      <use x="631.904297" xlink:href="#DejaVuSans-20"/>
      <use x="663.691406" xlink:href="#DejaVuSans-30"/>
      <use x="727.314453" xlink:href="#DejaVuSans-2e"/>
      <use x="759.101562" xlink:href="#DejaVuSans-39"/>
      <use x="822.724609" xlink:href="#DejaVuSans-37"/>
      <use x="886.347656" xlink:href="#DejaVuSans-29"/>
     </g>
    </g>
    <g id="line2d_17">
     <path d="M 399.1297 281.583 
L 427.2897 281.583 
" style="fill:none;stroke:#de8f05;stroke-linecap:round;stroke-width:1.2;"/>
    </g>
    <g id="line2d_18"/>
    <g id="text_17">
     <!-- Penn (AUC = 0.90) -->
     <g style="fill:#262626;" transform="translate(438.5537 286.511)scale(0.1408 -0.1408)">
      <defs>
       <path d="M 3513 2113 
L 3513 0 
L 2938 0 
L 2938 2094 
Q 2938 2591 2744 2837 
Q 2550 3084 2163 3084 
Q 1697 3084 1428 2787 
Q 1159 2491 1159 1978 
L 1159 0 
L 581 0 
L 581 3500 
L 1159 3500 
L 1159 2956 
Q 1366 3272 1645 3428 
Q 1925 3584 2291 3584 
Q 2894 3584 3203 3211 
Q 3513 2838 3513 2113 
z
" id="DejaVuSans-6e" transform="scale(0.015625)"/>
      </defs>
      <use xlink:href="#DejaVuSans-50"/>
      <use x="56.677734" xlink:href="#DejaVuSans-65"/>
      <use x="118.201172" xlink:href="#DejaVuSans-6e"/>
      <use x="181.580078" xlink:href="#DejaVuSans-6e"/>
      <use x="244.958984" xlink:href="#DejaVuSans-20"/>
      <use x="276.746094" xlink:href="#DejaVuSans-28"/>
      <use x="315.759766" xlink:href="#DejaVuSans-41"/>
      <use x="384.167969" xlink:href="#DejaVuSans-55"/>
      <use x="457.361328" xlink:href="#DejaVuSans-43"/>
      <use x="527.185547" xlink:href="#DejaVuSans-20"/>
      <use x="558.972656" xlink:href="#DejaVuSans-3d"/>
      <use x="642.761719" xlink:href="#DejaVuSans-20"/>
      <use x="674.548828" xlink:href="#DejaVuSans-30"/>
      <use x="738.171875" xlink:href="#DejaVuSans-2e"/>
      <use x="769.958984" xlink:href="#DejaVuSans-39"/>
      <use x="833.582031" xlink:href="#DejaVuSans-30"/>
      <use x="897.205078" xlink:href="#DejaVuSans-29"/>
     </g>
    </g>
   </g>
  </g>
  <g id="axes_2">
   <g id="patch_8">
    <path d="M 618.6319 302.1112 
L 1135.4112 302.1112 
L 1135.4112 34.5888 
L 618.6319 34.5888 
z
" style="fill:#ffffff;"/>
   </g>
   <g id="matplotlib.axis_3">
    <g id="xtick_7">
     <g id="line2d_19">
      <path clip-path="url(#p08ed894cfa)" d="M 642.121868 302.1112 
L 642.121868 34.5888 
" style="fill:none;stroke:#cccccc;stroke-linecap:round;stroke-width:0.8;"/>
     </g>
     <g id="text_18">
      <!-- 0.0 -->
      <g style="fill:#262626;" transform="translate(630.926068 321.1098)scale(0.1408 -0.1408)">
       <use xlink:href="#DejaVuSans-30"/>
       <use x="63.623047" xlink:href="#DejaVuSans-2e"/>
       <use x="95.410156" xlink:href="#DejaVuSans-30"/>
      </g>
     </g>
    </g>
    <g id="xtick_8">
     <g id="line2d_20">
      <path clip-path="url(#p08ed894cfa)" d="M 736.081741 302.1112 
L 736.081741 34.5888 
" style="fill:none;stroke:#cccccc;stroke-linecap:round;stroke-width:0.8;"/>
     </g>
     <g id="text_19">
      <!-- 0.2 -->
      <g style="fill:#262626;" transform="translate(724.885941 321.1098)scale(0.1408 -0.1408)">
       <use xlink:href="#DejaVuSans-30"/>
       <use x="63.623047" xlink:href="#DejaVuSans-2e"/>
       <use x="95.410156" xlink:href="#DejaVuSans-32"/>
      </g>
     </g>
    </g>
    <g id="xtick_9">
     <g id="line2d_21">
      <path clip-path="url(#p08ed894cfa)" d="M 830.041614 302.1112 
L 830.041614 34.5888 
" style="fill:none;stroke:#cccccc;stroke-linecap:round;stroke-width:0.8;"/>
     </g>
     <g id="text_20">
      <!-- 0.4 -->
      <g style="fill:#262626;" transform="translate(818.845814 321.1098)scale(0.1408 -0.1408)">
       <use xlink:href="#DejaVuSans-30"/>
       <use x="63.623047" xlink:href="#DejaVuSans-2e"/>
       <use x="95.410156" xlink:href="#DejaVuSans-34"/>
      </g>
     </g>
    </g>
    <g id="xtick_10">
     <g id="line2d_22">
      <path clip-path="url(#p08ed894cfa)" d="M 924.001486 302.1112 
L 924.001486 34.5888 
" style="fill:none;stroke:#cccccc;stroke-linecap:round;stroke-width:0.8;"/>
     </g>
     <g id="text_21">
      <!-- 0.6 -->
      <g style="fill:#262626;" transform="translate(912.805686 321.1098)scale(0.1408 -0.1408)">
       <use xlink:href="#DejaVuSans-30"/>
       <use x="63.623047" xlink:href="#DejaVuSans-2e"/>
       <use x="95.410156" xlink:href="#DejaVuSans-36"/>
      </g>
     </g>
    </g>
    <g id="xtick_11">
     <g id="line2d_23">
      <path clip-path="url(#p08ed894cfa)" d="M 1017.961359 302.1112 
L 1017.961359 34.5888 
" style="fill:none;stroke:#cccccc;stroke-linecap:round;stroke-width:0.8;"/>
     </g>
     <g id="text_22">
      <!-- 0.8 -->
      <g style="fill:#262626;" transform="translate(1006.765559 321.1098)scale(0.1408 -0.1408)">
       <use xlink:href="#DejaVuSans-30"/>
       <use x="63.623047" xlink:href="#DejaVuSans-2e"/>
       <use x="95.410156" xlink:href="#DejaVuSans-38"/>
      </g>
     </g>
    </g>
    <g id="xtick_12">
     <g id="line2d_24">
      <path clip-path="url(#p08ed894cfa)" d="M 1111.921232 302.1112 
L 1111.921232 34.5888 
" style="fill:none;stroke:#cccccc;stroke-linecap:round;stroke-width:0.8;"/>
     </g>
     <g id="text_23">
      <!-- 1.0 -->
      <g style="fill:#262626;" transform="translate(1100.725432 321.1098)scale(0.1408 -0.1408)">
       <use xlink:href="#DejaVuSans-31"/>
       <use x="63.623047" xlink:href="#DejaVuSans-2e"/>
       <use x="95.410156" xlink:href="#DejaVuSans-30"/>
      </g>
     </g>
    </g>
    <g id="text_24">
     <!-- False Positive Rate (Positive label: Neuroma) -->
     <g style="fill:#262626;" transform="translate(706.36115 339.7092)scale(0.1536 -0.1536)">
      <use xlink:href="#DejaVuSans-46"/>
      <use x="48.394531" xlink:href="#DejaVuSans-61"/>
      <use x="109.673828" xlink:href="#DejaVuSans-6c"/>
      <use x="137.457031" xlink:href="#DejaVuSans-73"/>
      <use x="189.556641" xlink:href="#DejaVuSans-65"/>
      <use x="251.080078" xlink:href="#DejaVuSans-20"/>
      <use x="282.867188" xlink:href="#DejaVuSans-50"/>
      <use x="339.544922" xlink:href="#DejaVuSans-6f"/>
      <use x="400.726562" xlink:href="#DejaVuSans-73"/>
      <use x="452.826172" xlink:href="#DejaVuSans-69"/>
      <use x="480.609375" xlink:href="#DejaVuSans-74"/>
      <use x="519.818359" xlink:href="#DejaVuSans-69"/>
      <use x="547.601562" xlink:href="#DejaVuSans-76"/>
      <use x="606.78125" xlink:href="#DejaVuSans-65"/>
      <use x="668.304688" xlink:href="#DejaVuSans-20"/>
      <use x="700.091797" xlink:href="#DejaVuSans-52"/>
      <use x="767.324219" xlink:href="#DejaVuSans-61"/>
      <use x="828.603516" xlink:href="#DejaVuSans-74"/>
      <use x="867.8125" xlink:href="#DejaVuSans-65"/>
      <use x="929.335938" xlink:href="#DejaVuSans-20"/>
      <use x="961.123047" xlink:href="#DejaVuSans-28"/>
      <use x="1000.136719" xlink:href="#DejaVuSans-50"/>
      <use x="1056.814453" xlink:href="#DejaVuSans-6f"/>
      <use x="1117.996094" xlink:href="#DejaVuSans-73"/>
      <use x="1170.095703" xlink:href="#DejaVuSans-69"/>
      <use x="1197.878906" xlink:href="#DejaVuSans-74"/>
      <use x="1237.087891" xlink:href="#DejaVuSans-69"/>
      <use x="1264.871094" xlink:href="#DejaVuSans-76"/>
      <use x="1324.050781" xlink:href="#DejaVuSans-65"/>
      <use x="1385.574219" xlink:href="#DejaVuSans-20"/>
      <use x="1417.361328" xlink:href="#DejaVuSans-6c"/>
      <use x="1445.144531" xlink:href="#DejaVuSans-61"/>
      <use x="1506.423828" xlink:href="#DejaVuSans-62"/>
      <use x="1569.900391" xlink:href="#DejaVuSans-65"/>
      <use x="1631.423828" xlink:href="#DejaVuSans-6c"/>
      <use x="1659.207031" xlink:href="#DejaVuSans-3a"/>
      <use x="1692.898438" xlink:href="#DejaVuSans-20"/>
      <use x="1724.685547" xlink:href="#DejaVuSans-4e"/>
      <use x="1799.490234" xlink:href="#DejaVuSans-65"/>
      <use x="1861.013672" xlink:href="#DejaVuSans-75"/>
      <use x="1924.392578" xlink:href="#DejaVuSans-72"/>
      <use x="1963.255859" xlink:href="#DejaVuSans-6f"/>
      <use x="2024.4375" xlink:href="#DejaVuSans-6d"/>
      <use x="2121.849609" xlink:href="#DejaVuSans-61"/>
      <use x="2183.128906" xlink:href="#DejaVuSans-29"/>
     </g>
    </g>
   </g>
   <g id="matplotlib.axis_4">
    <g id="ytick_7">
     <g id="line2d_25">
      <path clip-path="url(#p08ed894cfa)" d="M 618.6319 289.951091 
L 1135.4112 289.951091 
" style="fill:none;stroke:#cccccc;stroke-linecap:round;stroke-width:0.8;"/>
     </g>
    </g>
    <g id="ytick_8">
     <g id="line2d_26">
      <path clip-path="url(#p08ed894cfa)" d="M 618.6319 241.310655 
L 1135.4112 241.310655 
" style="fill:none;stroke:#cccccc;stroke-linecap:round;stroke-width:0.8;"/>
     </g>
    </g>
    <g id="ytick_9">
     <g id="line2d_27">
      <path clip-path="url(#p08ed894cfa)" d="M 618.6319 192.670218 
L 1135.4112 192.670218 
" style="fill:none;stroke:#cccccc;stroke-linecap:round;stroke-width:0.8;"/>
     </g>
    </g>
    <g id="ytick_10">
     <g id="line2d_28">
      <path clip-path="url(#p08ed894cfa)" d="M 618.6319 144.029782 
L 1135.4112 144.029782 
" style="fill:none;stroke:#cccccc;stroke-linecap:round;stroke-width:0.8;"/>
     </g>
    </g>
    <g id="ytick_11">
     <g id="line2d_29">
      <path clip-path="url(#p08ed894cfa)" d="M 618.6319 95.389345 
L 1135.4112 95.389345 
" style="fill:none;stroke:#cccccc;stroke-linecap:round;stroke-width:0.8;"/>
     </g>
    </g>
    <g id="ytick_12">
     <g id="line2d_30">
      <path clip-path="url(#p08ed894cfa)" d="M 618.6319 46.748909 
L 1135.4112 46.748909 
" style="fill:none;stroke:#cccccc;stroke-linecap:round;stroke-width:0.8;"/>
     </g>
    </g>
    <g id="text_25">
     <!-- True Positive Rate (Positive label: Neuroma) -->
     <g style="fill:#262626;" transform="translate(611.4375 336.0356)rotate(-90)scale(0.1536 -0.1536)">
      <use xlink:href="#DejaVuSans-54"/>
      <use x="46.333984" xlink:href="#DejaVuSans-72"/>
      <use x="87.447266" xlink:href="#DejaVuSans-75"/>
      <use x="150.826172" xlink:href="#DejaVuSans-65"/>
      <use x="212.349609" xlink:href="#DejaVuSans-20"/>
      <use x="244.136719" xlink:href="#DejaVuSans-50"/>
      <use x="300.814453" xlink:href="#DejaVuSans-6f"/>
      <use x="361.996094" xlink:href="#DejaVuSans-73"/>
      <use x="414.095703" xlink:href="#DejaVuSans-69"/>
      <use x="441.878906" xlink:href="#DejaVuSans-74"/>
      <use x="481.087891" xlink:href="#DejaVuSans-69"/>
      <use x="508.871094" xlink:href="#DejaVuSans-76"/>
      <use x="568.050781" xlink:href="#DejaVuSans-65"/>
      <use x="629.574219" xlink:href="#DejaVuSans-20"/>
      <use x="661.361328" xlink:href="#DejaVuSans-52"/>
      <use x="728.59375" xlink:href="#DejaVuSans-61"/>
      <use x="789.873047" xlink:href="#DejaVuSans-74"/>
      <use x="829.082031" xlink:href="#DejaVuSans-65"/>
      <use x="890.605469" xlink:href="#DejaVuSans-20"/>
      <use x="922.392578" xlink:href="#DejaVuSans-28"/>
      <use x="961.40625" xlink:href="#DejaVuSans-50"/>
      <use x="1018.083984" xlink:href="#DejaVuSans-6f"/>
      <use x="1079.265625" xlink:href="#DejaVuSans-73"/>
      <use x="1131.365234" xlink:href="#DejaVuSans-69"/>
      <use x="1159.148438" xlink:href="#DejaVuSans-74"/>
      <use x="1198.357422" xlink:href="#DejaVuSans-69"/>
      <use x="1226.140625" xlink:href="#DejaVuSans-76"/>
      <use x="1285.320312" xlink:href="#DejaVuSans-65"/>
      <use x="1346.84375" xlink:href="#DejaVuSans-20"/>
      <use x="1378.630859" xlink:href="#DejaVuSans-6c"/>
      <use x="1406.414062" xlink:href="#DejaVuSans-61"/>
      <use x="1467.693359" xlink:href="#DejaVuSans-62"/>
      <use x="1531.169922" xlink:href="#DejaVuSans-65"/>
      <use x="1592.693359" xlink:href="#DejaVuSans-6c"/>
      <use x="1620.476562" xlink:href="#DejaVuSans-3a"/>
      <use x="1654.167969" xlink:href="#DejaVuSans-20"/>
      <use x="1685.955078" xlink:href="#DejaVuSans-4e"/>
      <use x="1760.759766" xlink:href="#DejaVuSans-65"/>
      <use x="1822.283203" xlink:href="#DejaVuSans-75"/>
      <use x="1885.662109" xlink:href="#DejaVuSans-72"/>
      <use x="1924.525391" xlink:href="#DejaVuSans-6f"/>
      <use x="1985.707031" xlink:href="#DejaVuSans-6d"/>
      <use x="2083.119141" xlink:href="#DejaVuSans-61"/>
      <use x="2144.398438" xlink:href="#DejaVuSans-29"/>
     </g>
    </g>
   </g>
   <g id="line2d_31">
    <path clip-path="url(#p08ed894cfa)" d="M 642.121868 289.951091 
L 642.121868 283.871036 
L 642.121868 125.789618 
L 684.830901 125.789618 
L 684.830901 101.4694 
L 727.539934 101.4694 
L 727.539934 71.069127 
L 770.248967 71.069127 
L 770.248967 58.909018 
L 898.376067 58.909018 
L 898.376067 52.828964 
L 983.794133 52.828964 
L 983.794133 46.748909 
L 1111.921232 46.748909 
" style="fill:none;stroke:#0173b2;stroke-linecap:round;stroke-width:1.2;"/>
   </g>
   <g id="line2d_32">
    <path clip-path="url(#p08ed894cfa)" d="M 642.121868 289.951091 
L 642.121868 284.776576 
L 642.121868 227.856917 
L 798.721656 227.856917 
L 798.721656 108.843083 
L 955.321444 108.843083 
L 955.321444 62.272453 
L 1111.921232 62.272453 
L 1111.921232 46.748909 
" style="fill:none;stroke:#de8f05;stroke-linecap:round;stroke-width:1.2;"/>
   </g>
   <g id="patch_9">
    <path d="M 618.6319 302.1112 
L 618.6319 34.5888 
" style="fill:none;stroke:#cccccc;stroke-linecap:square;stroke-linejoin:miter;"/>
   </g>
   <g id="patch_10">
    <path d="M 1135.4112 302.1112 
L 1135.4112 34.5888 
" style="fill:none;stroke:#cccccc;stroke-linecap:square;stroke-linejoin:miter;"/>
   </g>
   <g id="patch_11">
    <path d="M 618.6319 302.1112 
L 1135.4112 302.1112 
" style="fill:none;stroke:#cccccc;stroke-linecap:square;stroke-linejoin:miter;"/>
   </g>
   <g id="patch_12">
    <path d="M 618.6319 34.5888 
L 1135.4112 34.5888 
" style="fill:none;stroke:#cccccc;stroke-linecap:square;stroke-linejoin:miter;"/>
   </g>
   <g id="text_26">
    <!-- Patient-level ROC curve -->
    <g style="fill:#262626;" transform="translate(786.10235 28.5888)scale(0.1536 -0.1536)">
     <use xlink:href="#DejaVuSans-50"/>
     <use x="55.802734" xlink:href="#DejaVuSans-61"/>
     <use x="117.082031" xlink:href="#DejaVuSans-74"/>
     <use x="156.291016" xlink:href="#DejaVuSans-69"/>
     <use x="184.074219" xlink:href="#DejaVuSans-65"/>
     <use x="245.597656" xlink:href="#DejaVuSans-6e"/>
     <use x="308.976562" xlink:href="#DejaVuSans-74"/>
     <use x="348.185547" xlink:href="#DejaVuSans-2d"/>
     <use x="384.269531" xlink:href="#DejaVuSans-6c"/>
     <use x="412.052734" xlink:href="#DejaVuSans-65"/>
     <use x="473.576172" xlink:href="#DejaVuSans-76"/>
     <use x="532.755859" xlink:href="#DejaVuSans-65"/>
     <use x="594.279297" xlink:href="#DejaVuSans-6c"/>
     <use x="622.0625" xlink:href="#DejaVuSans-20"/>
     <use x="653.849609" xlink:href="#DejaVuSans-52"/>
     <use x="723.332031" xlink:href="#DejaVuSans-4f"/>
     <use x="802.042969" xlink:href="#DejaVuSans-43"/>
     <use x="871.867188" xlink:href="#DejaVuSans-20"/>
     <use x="903.654297" xlink:href="#DejaVuSans-63"/>
     <use x="958.634766" xlink:href="#DejaVuSans-75"/>
     <use x="1022.013672" xlink:href="#DejaVuSans-72"/>
     <use x="1063.126953" xlink:href="#DejaVuSans-76"/>
     <use x="1122.306641" xlink:href="#DejaVuSans-65"/>
    </g>
   </g>
   <g id="legend_2">
    <g id="patch_13">
     <path d="M 948.6818 295.0712 
L 1125.5552 295.0712 
Q 1128.3712 295.0712 1128.3712 292.2552 
L 1128.3712 252.3296 
Q 1128.3712 249.5136 1125.5552 249.5136 
L 948.6818 249.5136 
Q 945.8658 249.5136 945.8658 252.3296 
L 945.8658 292.2552 
Q 945.8658 295.0712 948.6818 295.0712 
z
" style="fill:#ffffff;opacity:0.8;stroke:#cccccc;stroke-linejoin:miter;stroke-width:0.8;"/>
    </g>
    <g id="line2d_33">
     <path d="M 951.4978 260.9162 
L 979.6578 260.9162 
" style="fill:none;stroke:#0173b2;stroke-linecap:round;stroke-width:1.2;"/>
    </g>
    <g id="line2d_34"/>
    <g id="text_27">
     <!-- Tufts (AUC = 0.92) -->
     <g style="fill:#262626;" transform="translate(990.9218 265.8442)scale(0.1408 -0.1408)">
      <use xlink:href="#DejaVuSans-54"/>
      <use x="45.958984" xlink:href="#DejaVuSans-75"/>
      <use x="109.337891" xlink:href="#DejaVuSans-66"/>
      <use x="142.792969" xlink:href="#DejaVuSans-74"/>
      <use x="182.001953" xlink:href="#DejaVuSans-73"/>
      <use x="234.101562" xlink:href="#DejaVuSans-20"/>
      <use x="265.888672" xlink:href="#DejaVuSans-28"/>
      <use x="304.902344" xlink:href="#DejaVuSans-41"/>
      <use x="373.310547" xlink:href="#DejaVuSans-55"/>
      <use x="446.503906" xlink:href="#DejaVuSans-43"/>
      <use x="516.328125" xlink:href="#DejaVuSans-20"/>
      <use x="548.115234" xlink:href="#DejaVuSans-3d"/>
      <use x="631.904297" xlink:href="#DejaVuSans-20"/>
      <use x="663.691406" xlink:href="#DejaVuSans-30"/>
      <use x="727.314453" xlink:href="#DejaVuSans-2e"/>
      <use x="759.101562" xlink:href="#DejaVuSans-39"/>
      <use x="822.724609" xlink:href="#DejaVuSans-32"/>
      <use x="886.347656" xlink:href="#DejaVuSans-29"/>
     </g>
    </g>
    <g id="line2d_35">
     <path d="M 951.4978 281.583 
L 979.6578 281.583 
" style="fill:none;stroke:#de8f05;stroke-linecap:round;stroke-width:1.2;"/>
    </g>
    <g id="line2d_36"/>
    <g id="text_28">
     <!-- Penn (AUC = 0.65) -->
     <g style="fill:#262626;" transform="translate(990.9218 286.511)scale(0.1408 -0.1408)">
      <defs>
       <path d="M 691 4666 
L 3169 4666 
L 3169 4134 
L 1269 4134 
L 1269 2991 
Q 1406 3038 1543 3061 
Q 1681 3084 1819 3084 
Q 2600 3084 3056 2656 
Q 3513 2228 3513 1497 
Q 3513 744 3044 326 
Q 2575 -91 1722 -91 
Q 1428 -91 1123 -41 
Q 819 9 494 109 
L 494 744 
Q 775 591 1075 516 
Q 1375 441 1709 441 
Q 2250 441 2565 725 
Q 2881 1009 2881 1497 
Q 2881 1984 2565 2268 
Q 2250 2553 1709 2553 
Q 1456 2553 1204 2497 
Q 953 2441 691 2322 
L 691 4666 
z
" id="DejaVuSans-35" transform="scale(0.015625)"/>
      </defs>
      <use xlink:href="#DejaVuSans-50"/>
      <use x="56.677734" xlink:href="#DejaVuSans-65"/>
      <use x="118.201172" xlink:href="#DejaVuSans-6e"/>
      <use x="181.580078" xlink:href="#DejaVuSans-6e"/>
      <use x="244.958984" xlink:href="#DejaVuSans-20"/>
      <use x="276.746094" xlink:href="#DejaVuSans-28"/>
      <use x="315.759766" xlink:href="#DejaVuSans-41"/>
      <use x="384.167969" xlink:href="#DejaVuSans-55"/>
      <use x="457.361328" xlink:href="#DejaVuSans-43"/>
      <use x="527.185547" xlink:href="#DejaVuSans-20"/>
      <use x="558.972656" xlink:href="#DejaVuSans-3d"/>
      <use x="642.761719" xlink:href="#DejaVuSans-20"/>
      <use x="674.548828" xlink:href="#DejaVuSans-30"/>
      <use x="738.171875" xlink:href="#DejaVuSans-2e"/>
      <use x="769.958984" xlink:href="#DejaVuSans-36"/>
      <use x="833.582031" xlink:href="#DejaVuSans-35"/>
      <use x="897.205078" xlink:href="#DejaVuSans-29"/>
     </g>
    </g>
   </g>
  </g>
 </g>
 <defs>
  <clipPath id="p79d33e2852">
   <rect height="267.5224" width="516.7793" x="66.2638" y="34.5888"/>
  </clipPath>
  <clipPath id="p08ed894cfa">
   <rect height="267.5224" width="516.7793" x="618.6319" y="34.5888"/>
  </clipPath>
 </defs>
</svg>
