<?xml version="1.0" encoding="utf-8" standalone="no"?>
<!DOCTYPE svg PUBLIC "-//W3C//DTD SVG 1.1//EN"
  "http://www.w3.org/Graphics/SVG/1.1/DTD/svg11.dtd">
<svg height="360pt" version="1.1" viewBox="0 0 1152 360" width="1152pt" xmlns="http://www.w3.org/2000/svg" xmlns:xlink="http://www.w3.org/1999/xlink">
 <metadata>
  <rdf:RDF xmlns:cc="http://creativecommons.org/ns#" xmlns:dc="http://purl.org/dc/elements/1.1/" xmlns:rdf="http://www.w3.org/1999/02/22-rdf-syntax-ns#">
   <cc:Work>
    <dc:type rdf:resource="http://purl.org/dc/dcmitype/StillImage"/>
    <dc:date>2022-06-10T13:44:27.078139</dc:date>
    <dc:format>image/svg+xml</dc:format>
    <dc:creator>
     <cc:Agent>
      <dc:title>Matplotlib v3.4.3, https://matplotlib.org/</dc:title>
     </cc:Agent>
    </dc:creator>
   </cc:Work>
  </rdf:RDF>
 </metadata>
 <defs>
  <style type="text/css">*{stroke-linecap:butt;stroke-linejoin:round;}</style>
 </defs>
 <g id="figure_1">
  <g id="patch_1">
   <path d="M 0 360 
L 1152 360 
L 1152 0 
L 0 0 
z
" style="fill:#ffffff;"/>
  </g>
  <g id="axes_1">
   <g id="patch_2">
    <path d="M 66.2638 302.1112 
L 583.0431 302.1112 
L 583.0431 34.5888 
L 66.2638 34.5888 
z
" style="fill:#ffffff;"/>
   </g>
   <g id="matplotlib.axis_1">
    <g id="xtick_1">
     <g id="line2d_1">
      <path clip-path="url(#pb43ce76f01)" d="M 89.753768 302.1112 
L 89.753768 34.5888 
" style="fill:none;stroke:#cccccc;stroke-linecap:round;stroke-width:0.8;"/>
     </g>
     <g id="text_1">
      <!-- 0.0 -->
      <g style="fill:#262626;" transform="translate(78.557968 321.1098)scale(0.1408 -0.1408)">
       <defs>
        <path d="M 2034 4250 
Q 1547 4250 1301 3770 
Q 1056 3291 1056 2328 
Q 1056 1369 1301 889 
Q 1547 409 2034 409 
Q 2525 409 2770 889 
Q 3016 1369 3016 2328 
Q 3016 3291 2770 3770 
Q 2525 4250 2034 4250 
z
M 2034 4750 
Q 2819 4750 3233 4129 
Q 3647 3509 3647 2328 
Q 3647 1150 3233 529 
Q 2819 -91 2034 -91 
Q 1250 -91 836 529 
Q 422 1150 422 2328 
Q 422 3509 836 4129 
Q 1250 4750 2034 4750 
z
" id="DejaVuSans-30" transform="scale(0.015625)"/>
        <path d="M 684 794 
L 1344 794 
L 1344 0 
L 684 0 
L 684 794 
z
" id="DejaVuSans-2e" transform="scale(0.015625)"/>
       </defs>
       <use xlink:href="#DejaVuSans-30"/>
       <use x="63.623047" xlink:href="#DejaVuSans-2e"/>
       <use x="95.410156" xlink:href="#DejaVuSans-30"/>
      </g>
     </g>
    </g>
    <g id="xtick_2">
     <g id="line2d_2">
      <path clip-path="url(#pb43ce76f01)" d="M 183.713641 302.1112 
L 183.713641 34.5888 
" style="fill:none;stroke:#cccccc;stroke-linecap:round;stroke-width:0.8;"/>
     </g>
     <g id="text_2">
      <!-- 0.2 -->
      <g style="fill:#262626;" transform="translate(172.517841 321.1098)scale(0.1408 -0.1408)">
       <defs>
        <path d="M 1228 531 
L 3431 531 
L 3431 0 
L 469 0 
L 469 531 
Q 828 903 1448 1529 
Q 2069 2156 2228 2338 
Q 2531 2678 2651 2914 
Q 2772 3150 2772 3378 
Q 2772 3750 2511 3984 
Q 2250 4219 1831 4219 
Q 1534 4219 1204 4116 
Q 875 4013 500 3803 
L 500 4441 
Q 881 4594 1212 4672 
Q 1544 4750 1819 4750 
Q 2544 4750 2975 4387 
Q 3406 4025 3406 3419 
Q 3406 3131 3298 2873 
Q 3191 2616 2906 2266 
Q 2828 2175 2409 1742 
Q 1991 1309 1228 531 
z
" id="DejaVuSans-32" transform="scale(0.015625)"/>
       </defs>
       <use xlink:href="#DejaVuSans-30"/>
       <use x="63.623047" xlink:href="#DejaVuSans-2e"/>
       <use x="95.410156" xlink:href="#DejaVuSans-32"/>
      </g>
     </g>
    </g>
    <g id="xtick_3">
     <g id="line2d_3">
      <path clip-path="url(#pb43ce76f01)" d="M 277.673514 302.1112 
L 277.673514 34.5888 
" style="fill:none;stroke:#cccccc;stroke-linecap:round;stroke-width:0.8;"/>
     </g>
     <g id="text_3">
      <!-- 0.4 -->
      <g style="fill:#262626;" transform="translate(266.477714 321.1098)scale(0.1408 -0.1408)">
       <defs>
        <path d="M 2419 4116 
L 825 1625 
L 2419 1625 
L 2419 4116 
z
M 2253 4666 
L 3047 4666 
L 3047 1625 
L 3713 1625 
L 3713 1100 
L 3047 1100 
L 3047 0 
L 2419 0 
L 2419 1100 
L 313 1100 
L 313 1709 
L 2253 4666 
z
" id="DejaVuSans-34" transform="scale(0.015625)"/>
       </defs>
       <use xlink:href="#DejaVuSans-30"/>
       <use x="63.623047" xlink:href="#DejaVuSans-2e"/>
       <use x="95.410156" xlink:href="#DejaVuSans-34"/>
      </g>
     </g>
    </g>
    <g id="xtick_4">
     <g id="line2d_4">
      <path clip-path="url(#pb43ce76f01)" d="M 371.633386 302.1112 
L 371.633386 34.5888 
" style="fill:none;stroke:#cccccc;stroke-linecap:round;stroke-width:0.8;"/>
     </g>
     <g id="text_4">
      <!-- 0.6 -->
      <g style="fill:#262626;" transform="translate(360.437586 321.1098)scale(0.1408 -0.1408)">
       <defs>
        <path d="M 2113 2584 
Q 1688 2584 1439 2293 
Q 1191 2003 1191 1497 
Q 1191 994 1439 701 
Q 1688 409 2113 409 
Q 2538 409 2786 701 
Q 3034 994 3034 1497 
Q 3034 2003 2786 2293 
Q 2538 2584 2113 2584 
z
M 3366 4563 
L 3366 3988 
Q 3128 4100 2886 4159 
Q 2644 4219 2406 4219 
Q 1781 4219 1451 3797 
Q 1122 3375 1075 2522 
Q 1259 2794 1537 2939 
Q 1816 3084 2150 3084 
Q 2853 3084 3261 2657 
Q 3669 2231 3669 1497 
Q 3669 778 3244 343 
Q 2819 -91 2113 -91 
Q 1303 -91 875 529 
Q 447 1150 447 2328 
Q 447 3434 972 4092 
Q 1497 4750 2381 4750 
Q 2619 4750 2861 4703 
Q 3103 4656 3366 4563 
z
" id="DejaVuSans-36" transform="scale(0.015625)"/>
       </defs>
       <use xlink:href="#DejaVuSans-30"/>
       <use x="63.623047" xlink:href="#DejaVuSans-2e"/>
       <use x="95.410156" xlink:href="#DejaVuSans-36"/>
      </g>
     </g>
    </g>
    <g id="xtick_5">
     <g id="line2d_5">
      <path clip-path="url(#pb43ce76f01)" d="M 465.593259 302.1112 
L 465.593259 34.5888 
" style="fill:none;stroke:#cccccc;stroke-linecap:round;stroke-width:0.8;"/>
     </g>
     <g id="text_5">
      <!-- 0.8 -->
      <g style="fill:#262626;" transform="translate(454.397459 321.1098)scale(0.1408 -0.1408)">
       <defs>
        <path d="M 2034 2216 
Q 1584 2216 1326 1975 
Q 1069 1734 1069 1313 
Q 1069 891 1326 650 
Q 1584 409 2034 409 
Q 2484 409 2743 651 
Q 3003 894 3003 1313 
Q 3003 1734 2745 1975 
Q 2488 2216 2034 2216 
z
M 1403 2484 
Q 997 2584 770 2862 
Q 544 3141 544 3541 
Q 544 4100 942 4425 
Q 1341 4750 2034 4750 
Q 2731 4750 3128 4425 
Q 3525 4100 3525 3541 
Q 3525 3141 3298 2862 
Q 3072 2584 2669 2484 
Q 3125 2378 3379 2068 
Q 3634 1759 3634 1313 
Q 3634 634 3220 271 
Q 2806 -91 2034 -91 
Q 1263 -91 848 271 
Q 434 634 434 1313 
Q 434 1759 690 2068 
Q 947 2378 1403 2484 
z
M 1172 3481 
Q 1172 3119 1398 2916 
Q 1625 2713 2034 2713 
Q 2441 2713 2670 2916 
Q 2900 3119 2900 3481 
Q 2900 3844 2670 4047 
Q 2441 4250 2034 4250 
Q 1625 4250 1398 4047 
Q 1172 3844 1172 3481 
z
" id="DejaVuSans-38" transform="scale(0.015625)"/>
       </defs>
       <use xlink:href="#DejaVuSans-30"/>
       <use x="63.623047" xlink:href="#DejaVuSans-2e"/>
       <use x="95.410156" xlink:href="#DejaVuSans-38"/>
      </g>
     </g>
    </g>
    <g id="xtick_6">
     <g id="line2d_6">
      <path clip-path="url(#pb43ce76f01)" d="M 559.553132 302.1112 
L 559.553132 34.5888 
" style="fill:none;stroke:#cccccc;stroke-linecap:round;stroke-width:0.8;"/>
     </g>
     <g id="text_6">
      <!-- 1.0 -->
      <g style="fill:#262626;" transform="translate(548.357332 321.1098)scale(0.1408 -0.1408)">
       <defs>
        <path d="M 794 531 
L 1825 531 
L 1825 4091 
L 703 3866 
L 703 4441 
L 1819 4666 
L 2450 4666 
L 2450 531 
L 3481 531 
L 3481 0 
L 794 0 
L 794 531 
z
" id="DejaVuSans-31" transform="scale(0.015625)"/>
       </defs>
       <use xlink:href="#DejaVuSans-31"/>
       <use x="63.623047" xlink:href="#DejaVuSans-2e"/>
       <use x="95.410156" xlink:href="#DejaVuSans-30"/>
      </g>
     </g>
    </g>
    <g id="text_7">
     <!-- False Positive Rate (Positive label: Neuroma) -->
     <g style="fill:#262626;" transform="translate(153.99305 339.7092)scale(0.1536 -0.1536)">
      <defs>
       <path d="M 628 4666 
L 3309 4666 
L 3309 4134 
L 1259 4134 
L 1259 2759 
L 3109 2759 
L 3109 2228 
L 1259 2228 
L 1259 0 
L 628 0 
L 628 4666 
z
" id="DejaVuSans-46" transform="scale(0.015625)"/>
       <path d="M 2194 1759 
Q 1497 1759 1228 1600 
Q 959 1441 959 1056 
Q 959 750 1161 570 
Q 1363 391 1709 391 
Q 2188 391 2477 730 
Q 2766 1069 2766 1631 
L 2766 1759 
L 2194 1759 
z
M 3341 1997 
L 3341 0 
L 2766 0 
L 2766 531 
Q 2569 213 2275 61 
Q 1981 -91 1556 -91 
Q 1019 -91 701 211 
Q 384 513 384 1019 
Q 384 1609 779 1909 
Q 1175 2209 1959 2209 
L 2766 2209 
L 2766 2266 
Q 2766 2663 2505 2880 
Q 2244 3097 1772 3097 
Q 1472 3097 1187 3025 
Q 903 2953 641 2809 
L 641 3341 
Q 956 3463 1253 3523 
Q 1550 3584 1831 3584 
Q 2591 3584 2966 3190 
Q 3341 2797 3341 1997 
z
" id="DejaVuSans-61" transform="scale(0.015625)"/>
       <path d="M 603 4863 
L 1178 4863 
L 1178 0 
L 603 0 
L 603 4863 
z
" id="DejaVuSans-6c" transform="scale(0.015625)"/>
       <path d="M 2834 3397 
L 2834 2853 
Q 2591 2978 2328 3040 
Q 2066 3103 1784 3103 
Q 1356 3103 1142 2972 
Q 928 2841 928 2578 
Q 928 2378 1081 2264 
Q 1234 2150 1697 2047 
L 1894 2003 
Q 2506 1872 2764 1633 
Q 3022 1394 3022 966 
Q 3022 478 2636 193 
Q 2250 -91 1575 -91 
Q 1294 -91 989 -36 
Q 684 19 347 128 
L 347 722 
Q 666 556 975 473 
Q 1284 391 1588 391 
Q 1994 391 2212 530 
Q 2431 669 2431 922 
Q 2431 1156 2273 1281 
Q 2116 1406 1581 1522 
L 1381 1569 
Q 847 1681 609 1914 
Q 372 2147 372 2553 
Q 372 3047 722 3315 
Q 1072 3584 1716 3584 
Q 2034 3584 2315 3537 
Q 2597 3491 2834 3397 
z
" id="DejaVuSans-73" transform="scale(0.015625)"/>
       <path d="M 3597 1894 
L 3597 1613 
L 953 1613 
Q 991 1019 1311 708 
Q 1631 397 2203 397 
Q 2534 397 2845 478 
Q 3156 559 3463 722 
L 3463 178 
Q 3153 47 2828 -22 
Q 2503 -91 2169 -91 
Q 1331 -91 842 396 
Q 353 884 353 1716 
Q 353 2575 817 3079 
Q 1281 3584 2069 3584 
Q 2775 3584 3186 3129 
Q 3597 2675 3597 1894 
z
M 3022 2063 
Q 3016 2534 2758 2815 
Q 2500 3097 2075 3097 
Q 1594 3097 1305 2825 
Q 1016 2553 972 2059 
L 3022 2063 
z
" id="DejaVuSans-65" transform="scale(0.015625)"/>
       <path id="DejaVuSans-20" transform="scale(0.015625)"/>
       <path d="M 1259 4147 
L 1259 2394 
L 2053 2394 
Q 2494 2394 2734 2622 
Q 2975 2850 2975 3272 
Q 2975 3691 2734 3919 
Q 2494 4147 2053 4147 
L 1259 4147 
z
M 628 4666 
L 2053 4666 
Q 2838 4666 3239 4311 
Q 3641 3956 3641 3272 
Q 3641 2581 3239 2228 
Q 2838 1875 2053 1875 
L 1259 1875 
L 1259 0 
L 628 0 
L 628 4666 
z
" id="DejaVuSans-50" transform="scale(0.015625)"/>
       <path d="M 1959 3097 
Q 1497 3097 1228 2736 
Q 959 2375 959 1747 
Q 959 1119 1226 758 
Q 1494 397 1959 397 
Q 2419 397 2687 759 
Q 2956 1122 2956 1747 
Q 2956 2369 2687 2733 
Q 2419 3097 1959 3097 
z
M 1959 3584 
Q 2709 3584 3137 3096 
Q 3566 2609 3566 1747 
Q 3566 888 3137 398 
Q 2709 -91 1959 -91 
Q 1206 -91 779 398 
Q 353 888 353 1747 
Q 353 2609 779 3096 
Q 1206 3584 1959 3584 
z
" id="DejaVuSans-6f" transform="scale(0.015625)"/>
       <path d="M 603 3500 
L 1178 3500 
L 1178 0 
L 603 0 
L 603 3500 
z
M 603 4863 
L 1178 4863 
L 1178 4134 
L 603 4134 
L 603 4863 
z
" id="DejaVuSans-69" transform="scale(0.015625)"/>
       <path d="M 1172 4494 
L 1172 3500 
L 2356 3500 
L 2356 3053 
L 1172 3053 
L 1172 1153 
Q 1172 725 1289 603 
Q 1406 481 1766 481 
L 2356 481 
L 2356 0 
L 1766 0 
Q 1100 0 847 248 
Q 594 497 594 1153 
L 594 3053 
L 172 3053 
L 172 3500 
L 594 3500 
L 594 4494 
L 1172 4494 
z
" id="DejaVuSans-74" transform="scale(0.015625)"/>
       <path d="M 191 3500 
L 800 3500 
L 1894 563 
L 2988 3500 
L 3597 3500 
L 2284 0 
L 1503 0 
L 191 3500 
z
" id="DejaVuSans-76" transform="scale(0.015625)"/>
       <path d="M 2841 2188 
Q 3044 2119 3236 1894 
Q 3428 1669 3622 1275 
L 4263 0 
L 3584 0 
L 2988 1197 
Q 2756 1666 2539 1819 
Q 2322 1972 1947 1972 
L 1259 1972 
L 1259 0 
L 628 0 
L 628 4666 
L 2053 4666 
Q 2853 4666 3247 4331 
Q 3641 3997 3641 3322 
Q 3641 2881 3436 2590 
Q 3231 2300 2841 2188 
z
M 1259 4147 
L 1259 2491 
L 2053 2491 
Q 2509 2491 2742 2702 
Q 2975 2913 2975 3322 
Q 2975 3731 2742 3939 
Q 2509 4147 2053 4147 
L 1259 4147 
z
" id="DejaVuSans-52" transform="scale(0.015625)"/>
       <path d="M 1984 4856 
Q 1566 4138 1362 3434 
Q 1159 2731 1159 2009 
Q 1159 1288 1364 580 
Q 1569 -128 1984 -844 
L 1484 -844 
Q 1016 -109 783 600 
Q 550 1309 550 2009 
Q 550 2706 781 3412 
Q 1013 4119 1484 4856 
L 1984 4856 
z
" id="DejaVuSans-28" transform="scale(0.015625)"/>
       <path d="M 3116 1747 
Q 3116 2381 2855 2742 
Q 2594 3103 2138 3103 
Q 1681 3103 1420 2742 
Q 1159 2381 1159 1747 
Q 1159 1113 1420 752 
Q 1681 391 2138 391 
Q 2594 391 2855 752 
Q 3116 1113 3116 1747 
z
M 1159 2969 
Q 1341 3281 1617 3432 
Q 1894 3584 2278 3584 
Q 2916 3584 3314 3078 
Q 3713 2572 3713 1747 
Q 3713 922 3314 415 
Q 2916 -91 2278 -91 
Q 1894 -91 1617 61 
Q 1341 213 1159 525 
L 1159 0 
L 581 0 
L 581 4863 
L 1159 4863 
L 1159 2969 
z
" id="DejaVuSans-62" transform="scale(0.015625)"/>
       <path d="M 750 794 
L 1409 794 
L 1409 0 
L 750 0 
L 750 794 
z
M 750 3309 
L 1409 3309 
L 1409 2516 
L 750 2516 
L 750 3309 
z
" id="DejaVuSans-3a" transform="scale(0.015625)"/>
       <path d="M 628 4666 
L 1478 4666 
L 3547 763 
L 3547 4666 
L 4159 4666 
L 4159 0 
L 3309 0 
L 1241 3903 
L 1241 0 
L 628 0 
L 628 4666 
z
" id="DejaVuSans-4e" transform="scale(0.015625)"/>
       <path d="M 544 1381 
L 544 3500 
L 1119 3500 
L 1119 1403 
Q 1119 906 1312 657 
Q 1506 409 1894 409 
Q 2359 409 2629 706 
Q 2900 1003 2900 1516 
L 2900 3500 
L 3475 3500 
L 3475 0 
L 2900 0 
L 2900 538 
Q 2691 219 2414 64 
Q 2138 -91 1772 -91 
Q 1169 -91 856 284 
Q 544 659 544 1381 
z
M 1991 3584 
L 1991 3584 
z
" id="DejaVuSans-75" transform="scale(0.015625)"/>
       <path d="M 2631 2963 
Q 2534 3019 2420 3045 
Q 2306 3072 2169 3072 
Q 1681 3072 1420 2755 
Q 1159 2438 1159 1844 
L 1159 0 
L 581 0 
L 581 3500 
L 1159 3500 
L 1159 2956 
Q 1341 3275 1631 3429 
Q 1922 3584 2338 3584 
Q 2397 3584 2469 3576 
Q 2541 3569 2628 3553 
L 2631 2963 
z
" id="DejaVuSans-72" transform="scale(0.015625)"/>
       <path d="M 3328 2828 
Q 3544 3216 3844 3400 
Q 4144 3584 4550 3584 
Q 5097 3584 5394 3201 
Q 5691 2819 5691 2113 
L 5691 0 
L 5113 0 
L 5113 2094 
Q 5113 2597 4934 2840 
Q 4756 3084 4391 3084 
Q 3944 3084 3684 2787 
Q 3425 2491 3425 1978 
L 3425 0 
L 2847 0 
L 2847 2094 
Q 2847 2600 2669 2842 
Q 2491 3084 2119 3084 
Q 1678 3084 1418 2786 
Q 1159 2488 1159 1978 
L 1159 0 
L 581 0 
L 581 3500 
L 1159 3500 
L 1159 2956 
Q 1356 3278 1631 3431 
Q 1906 3584 2284 3584 
Q 2666 3584 2933 3390 
Q 3200 3197 3328 2828 
z
" id="DejaVuSans-6d" transform="scale(0.015625)"/>
       <path d="M 513 4856 
L 1013 4856 
Q 1481 4119 1714 3412 
Q 1947 2706 1947 2009 
Q 1947 1309 1714 600 
Q 1481 -109 1013 -844 
L 513 -844 
Q 928 -128 1133 580 
Q 1338 1288 1338 2009 
Q 1338 2731 1133 3434 
Q 928 4138 513 4856 
z
" id="DejaVuSans-29" transform="scale(0.015625)"/>
      </defs>
      <use xlink:href="#DejaVuSans-46"/>
      <use x="48.394531" xlink:href="#DejaVuSans-61"/>
      <use x="109.673828" xlink:href="#DejaVuSans-6c"/>
      <use x="137.457031" xlink:href="#DejaVuSans-73"/>
      <use x="189.556641" xlink:href="#DejaVuSans-65"/>
      <use x="251.080078" xlink:href="#DejaVuSans-20"/>
      <use x="282.867188" xlink:href="#DejaVuSans-50"/>
      <use x="339.544922" xlink:href="#DejaVuSans-6f"/>
      <use x="400.726562" xlink:href="#DejaVuSans-73"/>
      <use x="452.826172" xlink:href="#DejaVuSans-69"/>
      <use x="480.609375" xlink:href="#DejaVuSans-74"/>
      <use x="519.818359" xlink:href="#DejaVuSans-69"/>
      <use x="547.601562" xlink:href="#DejaVuSans-76"/>
      <use x="606.78125" xlink:href="#DejaVuSans-65"/>
      <use x="668.304688" xlink:href="#DejaVuSans-20"/>
      <use x="700.091797" xlink:href="#DejaVuSans-52"/>
      <use x="767.324219" xlink:href="#DejaVuSans-61"/>
      <use x="828.603516" xlink:href="#DejaVuSans-74"/>
      <use x="867.8125" xlink:href="#DejaVuSans-65"/>
      <use x="929.335938" xlink:href="#DejaVuSans-20"/>
      <use x="961.123047" xlink:href="#DejaVuSans-28"/>
      <use x="1000.136719" xlink:href="#DejaVuSans-50"/>
      <use x="1056.814453" xlink:href="#DejaVuSans-6f"/>
      <use x="1117.996094" xlink:href="#DejaVuSans-73"/>
      <use x="1170.095703" xlink:href="#DejaVuSans-69"/>
      <use x="1197.878906" xlink:href="#DejaVuSans-74"/>
      <use x="1237.087891" xlink:href="#DejaVuSans-69"/>
      <use x="1264.871094" xlink:href="#DejaVuSans-76"/>
      <use x="1324.050781" xlink:href="#DejaVuSans-65"/>
      <use x="1385.574219" xlink:href="#DejaVuSans-20"/>
      <use x="1417.361328" xlink:href="#DejaVuSans-6c"/>
      <use x="1445.144531" xlink:href="#DejaVuSans-61"/>
      <use x="1506.423828" xlink:href="#DejaVuSans-62"/>
      <use x="1569.900391" xlink:href="#DejaVuSans-65"/>
      <use x="1631.423828" xlink:href="#DejaVuSans-6c"/>
      <use x="1659.207031" xlink:href="#DejaVuSans-3a"/>
      <use x="1692.898438" xlink:href="#DejaVuSans-20"/>
      <use x="1724.685547" xlink:href="#DejaVuSans-4e"/>
      <use x="1799.490234" xlink:href="#DejaVuSans-65"/>
      <use x="1861.013672" xlink:href="#DejaVuSans-75"/>
      <use x="1924.392578" xlink:href="#DejaVuSans-72"/>
      <use x="1963.255859" xlink:href="#DejaVuSans-6f"/>
      <use x="2024.4375" xlink:href="#DejaVuSans-6d"/>
      <use x="2121.849609" xlink:href="#DejaVuSans-61"/>
      <use x="2183.128906" xlink:href="#DejaVuSans-29"/>
     </g>
    </g>
   </g>
   <g id="matplotlib.axis_2">
    <g id="ytick_1">
     <g id="line2d_7">
      <path clip-path="url(#pb43ce76f01)" d="M 66.2638 289.951091 
L 583.0431 289.951091 
" style="fill:none;stroke:#cccccc;stroke-linecap:round;stroke-width:0.8;"/>
     </g>
     <g id="text_8">
      <!-- 0.0 -->
      <g style="fill:#262626;" transform="translate(35.5722 295.300391)scale(0.1408 -0.1408)">
       <use xlink:href="#DejaVuSans-30"/>
       <use x="63.623047" xlink:href="#DejaVuSans-2e"/>
       <use x="95.410156" xlink:href="#DejaVuSans-30"/>
      </g>
     </g>
    </g>
    <g id="ytick_2">
     <g id="line2d_8">
      <path clip-path="url(#pb43ce76f01)" d="M 66.2638 241.310655 
L 583.0431 241.310655 
" style="fill:none;stroke:#cccccc;stroke-linecap:round;stroke-width:0.8;"/>
     </g>
     <g id="text_9">
      <!-- 0.2 -->
      <g style="fill:#262626;" transform="translate(35.5722 246.659955)scale(0.1408 -0.1408)">
       <use xlink:href="#DejaVuSans-30"/>
       <use x="63.623047" xlink:href="#DejaVuSans-2e"/>
       <use x="95.410156" xlink:href="#DejaVuSans-32"/>
      </g>
     </g>
    </g>
    <g id="ytick_3">
     <g id="line2d_9">
      <path clip-path="url(#pb43ce76f01)" d="M 66.2638 192.670218 
L 583.0431 192.670218 
" style="fill:none;stroke:#cccccc;stroke-linecap:round;stroke-width:0.8;"/>
     </g>
     <g id="text_10">
      <!-- 0.4 -->
      <g style="fill:#262626;" transform="translate(35.5722 198.019518)scale(0.1408 -0.1408)">
       <use xlink:href="#DejaVuSans-30"/>
       <use x="63.623047" xlink:href="#DejaVuSans-2e"/>
       <use x="95.410156" xlink:href="#DejaVuSans-34"/>
      </g>
     </g>
    </g>
    <g id="ytick_4">
     <g id="line2d_10">
      <path clip-path="url(#pb43ce76f01)" d="M 66.2638 144.029782 
L 583.0431 144.029782 
" style="fill:none;stroke:#cccccc;stroke-linecap:round;stroke-width:0.8;"/>
     </g>
     <g id="text_11">
      <!-- 0.6 -->
      <g style="fill:#262626;" transform="translate(35.5722 149.379082)scale(0.1408 -0.1408)">
       <use xlink:href="#DejaVuSans-30"/>
       <use x="63.623047" xlink:href="#DejaVuSans-2e"/>
       <use x="95.410156" xlink:href="#DejaVuSans-36"/>
      </g>
     </g>
    </g>
    <g id="ytick_5">
     <g id="line2d_11">
      <path clip-path="url(#pb43ce76f01)" d="M 66.2638 95.389345 
L 583.0431 95.389345 
" style="fill:none;stroke:#cccccc;stroke-linecap:round;stroke-width:0.8;"/>
     </g>
     <g id="text_12">
      <!-- 0.8 -->
      <g style="fill:#262626;" transform="translate(35.5722 100.738645)scale(0.1408 -0.1408)">
       <use xlink:href="#DejaVuSans-30"/>
       <use x="63.623047" xlink:href="#DejaVuSans-2e"/>
       <use x="95.410156" xlink:href="#DejaVuSans-38"/>
      </g>
     </g>
    </g>
    <g id="ytick_6">
     <g id="line2d_12">
      <path clip-path="url(#pb43ce76f01)" d="M 66.2638 46.748909 
L 583.0431 46.748909 
" style="fill:none;stroke:#cccccc;stroke-linecap:round;stroke-width:0.8;"/>
     </g>
     <g id="text_13">
      <!-- 1.0 -->
      <g style="fill:#262626;" transform="translate(35.5722 52.098209)scale(0.1408 -0.1408)">
       <use xlink:href="#DejaVuSans-31"/>
       <use x="63.623047" xlink:href="#DejaVuSans-2e"/>
       <use x="95.410156" xlink:href="#DejaVuSans-30"/>
      </g>
     </g>
    </g>
    <g id="text_14">
     <!-- True Positive Rate (Positive label: Neuroma) -->
     <g style="fill:#262626;" transform="translate(28.3778 336.0356)rotate(-90)scale(0.1536 -0.1536)">
      <defs>
       <path d="M -19 4666 
L 3928 4666 
L 3928 4134 
L 2272 4134 
L 2272 0 
L 1638 0 
L 1638 4134 
L -19 4134 
L -19 4666 
z
" id="DejaVuSans-54" transform="scale(0.015625)"/>
      </defs>
      <use xlink:href="#DejaVuSans-54"/>
      <use x="46.333984" xlink:href="#DejaVuSans-72"/>
      <use x="87.447266" xlink:href="#DejaVuSans-75"/>
      <use x="150.826172" xlink:href="#DejaVuSans-65"/>
      <use x="212.349609" xlink:href="#DejaVuSans-20"/>
      <use x="244.136719" xlink:href="#DejaVuSans-50"/>
      <use x="300.814453" xlink:href="#DejaVuSans-6f"/>
      <use x="361.996094" xlink:href="#DejaVuSans-73"/>
      <use x="414.095703" xlink:href="#DejaVuSans-69"/>
      <use x="441.878906" xlink:href="#DejaVuSans-74"/>
      <use x="481.087891" xlink:href="#DejaVuSans-69"/>
      <use x="508.871094" xlink:href="#DejaVuSans-76"/>
      <use x="568.050781" xlink:href="#DejaVuSans-65"/>
      <use x="629.574219" xlink:href="#DejaVuSans-20"/>
      <use x="661.361328" xlink:href="#DejaVuSans-52"/>
      <use x="728.59375" xlink:href="#DejaVuSans-61"/>
      <use x="789.873047" xlink:href="#DejaVuSans-74"/>
      <use x="829.082031" xlink:href="#DejaVuSans-65"/>
      <use x="890.605469" xlink:href="#DejaVuSans-20"/>
      <use x="922.392578" xlink:href="#DejaVuSans-28"/>
      <use x="961.40625" xlink:href="#DejaVuSans-50"/>
      <use x="1018.083984" xlink:href="#DejaVuSans-6f"/>
      <use x="1079.265625" xlink:href="#DejaVuSans-73"/>
      <use x="1131.365234" xlink:href="#DejaVuSans-69"/>
      <use x="1159.148438" xlink:href="#DejaVuSans-74"/>
      <use x="1198.357422" xlink:href="#DejaVuSans-69"/>
      <use x="1226.140625" xlink:href="#DejaVuSans-76"/>
      <use x="1285.320312" xlink:href="#DejaVuSans-65"/>
      <use x="1346.84375" xlink:href="#DejaVuSans-20"/>
      <use x="1378.630859" xlink:href="#DejaVuSans-6c"/>
      <use x="1406.414062" xlink:href="#DejaVuSans-61"/>
      <use x="1467.693359" xlink:href="#DejaVuSans-62"/>
      <use x="1531.169922" xlink:href="#DejaVuSans-65"/>
      <use x="1592.693359" xlink:href="#DejaVuSans-6c"/>
      <use x="1620.476562" xlink:href="#DejaVuSans-3a"/>
      <use x="1654.167969" xlink:href="#DejaVuSans-20"/>
      <use x="1685.955078" xlink:href="#DejaVuSans-4e"/>
      <use x="1760.759766" xlink:href="#DejaVuSans-65"/>
      <use x="1822.283203" xlink:href="#DejaVuSans-75"/>
      <use x="1885.662109" xlink:href="#DejaVuSans-72"/>
      <use x="1924.525391" xlink:href="#DejaVuSans-6f"/>
      <use x="1985.707031" xlink:href="#DejaVuSans-6d"/>
      <use x="2083.119141" xlink:href="#DejaVuSans-61"/>
      <use x="2144.398438" xlink:href="#DejaVuSans-29"/>
     </g>
    </g>
   </g>
   <g id="line2d_13">
    <path clip-path="url(#pb43ce76f01)" d="M 89.753768 289.951091 
L 89.794494 286.023602 
L 89.893401 280.434484 
L 89.969035 277.262281 
L 90.073759 272.579506 
L 90.399568 263.213957 
L 90.446113 262.156556 
L 90.812648 252.186777 
L 91.196637 243.727571 
L 91.301362 242.519113 
L 91.45263 238.440567 
L 91.504992 237.836338 
L 91.778439 230.283475 
L 92.005342 226.053872 
L 92.464966 216.839379 
L 92.494056 216.839379 
L 92.755867 212.760833 
L 92.872227 212.005547 
L 93.180582 206.416428 
L 93.232945 206.114314 
L 93.59948 199.769909 
L 93.727476 198.410394 
L 93.867109 195.389249 
L 94.024195 191.159646 
L 94.088194 190.404359 
L 94.227826 188.289558 
L 94.262734 188.289558 
L 94.681632 182.851497 
L 95.176164 176.960264 
L 95.309978 174.39229 
L 95.385612 173.788061 
L 96.45031 161.401366 
L 96.578307 160.343965 
L 97.259015 153.848503 
L 97.375375 152.640045 
L 97.474282 150.978416 
L 97.532462 150.978416 
L 97.788455 148.108328 
L 97.881543 147.655156 
L 98.044448 146.295641 
L 98.114264 146.295641 
L 98.428437 144.482954 
L 98.474981 144.482954 
L 98.71352 143.425553 
L 99.085874 139.498064 
L 99.138236 139.498064 
L 99.306958 137.232205 
L 99.580405 135.268461 
L 99.615313 135.268461 
L 100.348384 130.736743 
L 100.488017 129.981457 
L 100.86037 127.866655 
L 100.88946 127.866655 
L 101.157089 126.356083 
L 101.488716 124.241281 
L 101.500352 124.241281 
L 102.00652 120.766964 
L 102.134516 120.766964 
L 102.268331 118.954277 
L 102.4196 117.745819 
L 102.471962 117.745819 
L 102.762863 116.386304 
L 102.838497 116.235247 
L 102.954857 115.47996 
L 103.402845 112.911987 
L 103.466843 112.911987 
L 103.577386 112.307758 
L 103.629748 112.307758 
L 103.815925 111.854586 
L 104.409363 108.984498 
L 104.543177 108.682384 
L 104.688628 108.682384 
L 104.903894 107.77604 
L 105.177341 106.416525 
L 105.316974 106.416525 
L 105.712599 105.359124 
L 105.805688 105.359124 
L 105.997682 104.603838 
L 106.090771 104.301724 
L 106.224585 103.39538 
L 106.585302 101.884807 
L 106.754025 101.582693 
L 106.858749 101.582693 
L 107.010018 100.676349 
L 107.097288 100.525292 
L 107.254375 99.921063 
L 107.300919 99.921063 
L 107.417279 99.467891 
L 107.510368 99.467891 
L 107.743089 98.410491 
L 107.841995 98.410491 
L 108.06308 97.957319 
L 108.167804 97.957319 
L 108.353981 96.899918 
L 108.406343 96.899918 
L 108.452887 96.295689 
L 108.569248 96.295689 
L 108.62161 95.993574 
L 108.749606 95.238288 
L 109.156868 94.02983 
L 109.20923 94.02983 
L 109.610673 93.274544 
L 109.76776 93.274544 
L 109.919028 92.972429 
L 110.017935 92.972429 
L 110.960454 90.253399 
L 111.053542 90.253399 
L 111.55971 89.498112 
L 111.757523 88.591769 
L 112.141512 88.591769 
L 112.217147 88.440712 
L 112.339325 87.836483 
L 112.606954 87.534368 
L 112.636044 87.534368 
L 112.857129 87.081196 
L 113.130576 86.628025 
L 113.270208 86.628025 
L 113.805466 85.872738 
L 114.026551 85.872738 
L 114.142911 85.721681 
L 114.398904 85.721681 
L 114.445449 85.419567 
L 114.608353 85.419567 
L 114.76544 85.268509 
L 114.817802 85.268509 
L 114.951616 84.815338 
L 115.003979 84.815338 
L 115.201791 84.513223 
L 115.387968 84.362166 
L 115.481056 84.362166 
L 115.574145 84.211109 
L 115.661415 84.211109 
L 115.830138 84.060051 
L 115.888318 84.060051 
L 116.062858 83.757937 
L 117.005378 82.700536 
L 117.133374 82.700536 
L 117.412639 82.096307 
L 117.814083 82.096307 
L 118.413339 80.434677 
L 118.483155 80.434677 
L 118.64606 79.981505 
L 119.070775 79.377276 
L 119.163863 79.377276 
L 119.361676 78.924105 
L 119.530399 78.924105 
L 119.664213 78.470933 
L 120.176199 77.715647 
L 120.420556 77.262475 
L 120.618369 77.262475 
L 121.077992 76.809303 
L 121.322349 76.809303 
L 121.735429 76.507188 
L 121.944877 75.902959 
L 122.05542 75.902959 
L 122.282323 75.29873 
L 122.602314 75.29873 
L 122.712856 74.845559 
L 122.829217 74.845559 
L 122.916487 74.694501 
L 123.056119 74.694501 
L 123.219024 74.392387 
L 123.381929 74.392387 
L 123.748464 73.939215 
L 124.016093 73.183929 
L 124.149907 73.183929 
L 124.522261 72.881814 
L 124.87716 72.881814 
L 125.040064 72.730757 
L 125.488052 72.730757 
L 125.790589 72.5797 
L 126.401481 72.5797 
L 126.686564 72.126528 
L 127.181096 72.126528 
L 128.426153 71.371242 
L 128.577421 71.371242 
L 128.87414 71.220185 
L 129.205767 71.220185 
L 129.409398 70.767013 
L 129.770115 70.767013 
L 129.898112 70.615956 
L 130.061016 70.615956 
L 130.468278 70.464898 
L 130.695181 70.464898 
L 130.986082 69.860669 
L 131.329345 69.860669 
L 131.649336 69.709612 
L 131.980963 69.709612 
L 133.080569 68.954326 
L 133.231838 68.652211 
L 133.383106 68.652211 
L 133.674007 68.501154 
L 133.848548 68.501154 
L 134.377988 68.047982 
L 134.936518 68.047982 
L 135.029606 67.745868 
L 135.221601 67.745868 
L 135.40196 67.59481 
L 135.63468 67.59481 
L 138.287698 65.328952 
L 138.555327 65.328952 
L 139.410576 64.724723 
L 140.63236 64.724723 
L 141.004714 64.573665 
L 141.214162 64.573665 
L 141.382885 64.422608 
L 142.040321 64.422608 
L 142.377767 64.271551 
L 143.471554 64.271551 
L 143.570461 64.120494 
L 144.204625 63.818379 
L 144.827153 63.818379 
L 145.211143 63.667322 
L 145.467136 63.667322 
L 145.664948 63.516264 
L 145.903487 63.516264 
L 146.078028 63.21415 
L 146.334021 63.063093 
L 146.514379 62.760978 
L 147.421991 62.760978 
L 147.701256 62.458864 
L 148.312148 62.458864 
L 148.789225 62.307806 
L 150.022646 62.307806 
L 150.755717 61.854635 
L 150.982619 61.854635 
L 151.174614 61.703577 
L 151.482969 61.703577 
L 151.65751 61.55252 
L 152.210222 61.55252 
L 152.536031 61.250406 
L 153.624001 61.250406 
L 154.153441 60.948291 
L 154.380344 60.948291 
L 154.572338 60.797234 
L 154.851603 60.797234 
L 155.253047 60.646177 
L 155.666126 60.646177 
L 156.416651 60.344062 
L 156.649372 60.344062 
L 157.312626 60.041948 
L 157.539529 60.041948 
L 157.754796 59.739833 
L 158.272599 59.739833 
L 159.174393 58.984547 
L 159.913281 58.984547 
L 160.413631 58.83349 
L 161.263062 58.83349 
L 161.507419 58.531375 
L 161.850682 58.531375 
L 162.525573 58.078203 
L 163.822991 58.078203 
L 164.439702 57.776089 
L 164.951687 57.776089 
L 165.498581 57.473974 
L 167.837426 57.473974 
L 168.017784 57.322917 
L 168.878851 57.020802 
L 171.328238 57.020802 
L 171.555141 56.869745 
L 172.026401 56.869745 
L 172.456934 56.718688 
L 172.992192 56.567631 
L 173.533268 56.567631 
L 174.603784 56.265516 
L 178.420406 56.265516 
L 179.665462 55.812344 
L 180.823248 55.812344 
L 181.445776 55.661287 
L 182.661743 55.661287 
L 183.13882 55.51023 
L 183.499538 55.51023 
L 183.732259 55.208115 
L 184.930771 55.208115 
L 185.518391 55.057058 
L 185.850018 55.057058 
L 186.065285 54.906001 
L 187.979414 54.906001 
L 188.369221 54.754944 
L 188.660122 54.452829 
L 191.097873 54.452829 
L 191.761127 54.301772 
L 195.275212 54.301772 
L 195.554477 54.150715 
L 196.188641 54.150715 
L 196.863532 53.999657 
L 198.114406 53.999657 
L 198.376217 53.8486 
L 198.958019 53.8486 
L 199.429279 53.697543 
L 199.632909 53.395428 
L 202.594282 53.395428 
L 203.18772 53.244371 
L 204.473503 53.244371 
L 205.177483 53.093314 
L 206.387632 53.093314 
L 207.324333 52.791199 
L 208.179582 52.791199 
L 208.895199 52.640142 
L 209.279188 52.640142 
L 209.471183 52.489085 
L 211.315495 52.489085 
L 211.693667 52.338028 
L 211.938024 52.035913 
L 220.228703 52.035913 
L 220.484696 51.884856 
L 221.875203 51.884856 
L 222.474459 51.733799 
L 225.680189 51.733799 
L 226.314353 51.582741 
L 227.489593 51.582741 
L 228.187756 51.280627 
L 229.217545 51.280627 
L 229.706259 50.827455 
L 230.608052 50.827455 
L 231.637842 50.52534 
L 234.023231 50.52534 
L 234.657395 50.374283 
L 235.419556 50.374283 
L 236.14099 49.921111 
L 237.252232 49.921111 
L 237.525679 49.770054 
L 238.299476 49.770054 
L 239.026729 49.618997 
L 239.655075 49.618997 
L 240.289239 49.46794 
L 241.074672 49.316882 
L 242.127734 49.316882 
L 242.348818 49.165825 
L 243.052799 49.165825 
L 243.384426 49.014768 
L 243.657873 49.014768 
L 244.030226 48.561596 
L 244.268765 48.561596 
L 244.926202 48.410539 
L 249.755159 48.410539 
L 250.459139 48.259482 
L 251.803102 48.259482 
L 253.234335 47.957367 
L 254.520118 47.957367 
L 255.1601 47.80631 
L 269.74006 47.80631 
L 270.316045 47.655253 
L 276.343514 47.655253 
L 277.722385 47.353138 
L 290.632573 47.353138 
L 291.231829 47.202081 
L 298.085458 47.202081 
L 298.545082 47.051024 
L 299.237426 46.899966 
L 316.871847 46.899966 
L 317.558374 46.748909 
L 559.553132 46.748909 
L 559.553132 46.748909 
" style="fill:none;stroke:#0173b2;stroke-linecap:round;stroke-width:1.2;"/>
   </g>
   <g id="line2d_14">
    <path clip-path="url(#pb43ce76f01)" d="M 89.753768 289.951091 
L 89.846353 282.826027 
L 89.869499 282.826027 
L 89.962084 278.550989 
L 89.985231 278.550989 
L 90.054669 272.850937 
L 90.100962 272.850937 
L 90.193547 269.525908 
L 90.239839 269.525908 
L 90.239839 268.575899 
L 90.401863 268.575899 
L 90.494448 264.300861 
L 90.517594 264.300861 
L 90.610179 261.925839 
L 90.633326 261.925839 
L 90.725911 259.550818 
L 90.749057 259.550818 
L 90.841642 256.700793 
L 90.887934 256.700793 
L 90.887934 256.225788 
L 91.026812 256.225788 
L 91.119397 253.375763 
L 91.142543 253.375763 
L 91.235128 249.575729 
L 91.350859 249.575729 
L 91.420298 246.725703 
L 91.46659 246.725703 
L 91.536029 245.30069 
L 91.628614 245.30069 
L 91.674907 243.875678 
L 91.744345 243.875678 
L 91.83693 237.700622 
L 91.860077 237.700622 
L 91.952662 234.850597 
L 91.998954 234.850597 
L 91.998954 234.375592 
L 92.160978 234.375592 
L 92.253563 233.425584 
L 92.276709 233.425584 
L 92.369294 230.575558 
L 92.39244 230.575558 
L 92.461879 228.675541 
L 92.693341 228.675541 
L 92.785926 226.775524 
L 92.994243 226.775524 
L 92.994243 226.30052 
L 93.109974 226.30052 
L 93.202559 224.875507 
L 93.271998 224.875507 
L 93.364583 223.450494 
L 93.410875 223.450494 
L 93.480314 221.075473 
L 93.572899 221.075473 
L 93.572899 220.600469 
L 93.827508 220.600469 
L 93.920093 216.800435 
L 93.943239 216.800435 
L 93.943239 215.850426 
L 94.05897 215.850426 
L 94.128409 214.425413 
L 94.267286 214.425413 
L 94.359871 213.475405 
L 94.383017 213.475405 
L 94.475602 212.050392 
L 94.568187 212.050392 
L 94.660772 211.100384 
L 94.683919 211.100384 
L 94.730211 210.150375 
L 94.79965 210.150375 
L 94.869089 209.200366 
L 94.98482 209.200366 
L 94.98482 208.725362 
L 95.146844 208.725362 
L 95.146844 208.250358 
L 95.285721 208.250358 
L 95.35516 206.825345 
L 95.447745 206.825345 
L 95.517184 204.925328 
L 95.609769 204.925328 
L 95.702354 203.025311 
L 95.864377 203.025311 
L 95.864377 202.550307 
L 95.980108 202.550307 
L 96.072693 201.125294 
L 96.165278 201.125294 
L 96.165278 200.175286 
L 96.373595 200.175286 
L 96.373595 199.700281 
L 96.697642 199.700281 
L 96.743935 198.750273 
L 96.905958 198.750273 
L 96.998543 196.375251 
L 97.02169 196.375251 
L 97.067982 195.425243 
L 97.137421 195.425243 
L 97.137421 194.950239 
L 97.299445 194.950239 
L 97.345737 194.00023 
L 97.484614 194.00023 
L 97.554053 192.575217 
L 97.623492 192.575217 
L 97.716077 189.250187 
L 97.762369 189.250187 
L 97.762369 188.775183 
L 97.878101 188.775183 
L 97.878101 188.300179 
L 98.179002 188.300179 
L 98.179002 187.825175 
L 98.294733 187.825175 
L 98.294733 187.35017 
L 98.410464 187.35017 
L 98.433611 186.400162 
L 98.572488 186.400162 
L 98.665073 185.450153 
L 98.780804 185.450153 
L 98.780804 184.975149 
L 99.290022 184.975149 
L 99.35946 184.025141 
L 99.567777 184.025141 
L 99.567777 183.550136 
L 99.799239 183.550136 
L 99.799239 183.075132 
L 99.961263 183.075132 
L 99.961263 182.600128 
L 100.123287 182.600128 
L 100.123287 182.125124 
L 100.377895 182.125124 
L 100.47048 181.175115 
L 100.539919 181.175115 
L 100.563065 180.225107 
L 100.794528 180.225107 
L 100.863966 178.800094 
L 100.933405 178.800094 
L 100.933405 177.850085 
L 101.072283 177.850085 
L 101.164868 176.425072 
L 101.188014 176.425072 
L 101.234306 175.00006 
L 101.419476 175.00006 
L 101.419476 174.525055 
L 101.5815 174.525055 
L 101.5815 174.050051 
L 101.720378 174.050051 
L 101.76667 172.625038 
L 101.859255 172.625038 
L 101.905548 171.67503 
L 102.044425 171.67503 
L 102.044425 171.200026 
L 102.160156 171.200026 
L 102.183303 169.775013 
L 102.461057 169.775013 
L 102.50735 168.35 
L 102.738812 168.35 
L 102.738812 167.874996 
L 102.854544 167.874996 
L 102.854544 167.399991 
L 103.178591 167.399991 
L 103.24803 165.974979 
L 103.548931 165.974979 
L 103.548931 165.499974 
L 103.919271 165.499974 
L 103.965563 164.549966 
L 104.104441 164.549966 
L 104.127587 163.599957 
L 104.266465 163.599957 
L 104.266465 163.124953 
L 104.382196 163.124953 
L 104.382196 162.649949 
L 104.683097 162.649949 
L 104.683097 161.69994 
L 105.007145 161.69994 
L 105.007145 161.224936 
L 105.354338 161.224936 
L 105.423777 160.274928 
L 105.47007 160.274928 
L 105.47007 159.324919 
L 105.724678 159.324919 
L 105.724678 158.849915 
L 105.840409 158.849915 
L 105.932994 157.899906 
L 106.233896 157.899906 
L 106.233896 157.424902 
L 106.349627 157.424902 
L 106.349627 156.474893 
L 106.858844 156.474893 
L 106.858844 155.524885 
L 107.020868 155.524885 
L 107.090307 154.574876 
L 107.4375 154.574876 
L 107.460647 153.624868 
L 107.599524 153.624868 
L 107.645817 152.674859 
L 107.946718 152.674859 
L 107.969864 151.724851 
L 108.386497 151.724851 
L 108.386497 151.249847 
L 108.779983 151.249847 
L 108.779983 150.774842 
L 109.404931 150.774842 
L 109.404931 150.299838 
L 109.520663 150.299838 
L 109.520663 149.824834 
L 109.636394 149.824834 
L 109.682686 148.399821 
L 109.752125 148.399821 
L 109.775271 147.449813 
L 110.353927 147.449813 
L 110.353927 146.974808 
L 110.608536 146.974808 
L 110.608536 146.499804 
L 110.747414 146.499804 
L 110.793706 145.549795 
L 111.002022 145.549795 
L 111.094607 144.599787 
L 111.626971 144.599787 
L 111.69641 142.69977 
L 111.765849 142.69977 
L 111.765849 142.224766 
L 112.506528 142.224766 
L 112.506528 141.749761 
L 112.714845 141.749761 
L 112.714845 141.274757 
L 113.17777 141.274757 
L 113.17777 140.799753 
L 113.501817 140.799753 
L 113.501817 140.324749 
L 113.918449 140.324749 
L 113.987888 138.424732 
L 114.103619 138.424732 
L 114.103619 137.949727 
L 114.242497 137.949727 
L 114.242497 137.474723 
L 114.497106 137.474723 
L 114.497106 136.999719 
L 114.751714 136.999719 
L 114.844299 136.04971 
L 114.983177 136.04971 
L 115.075762 134.149693 
L 115.446102 134.149693 
L 115.469248 133.199685 
L 115.770149 133.199685 
L 115.770149 132.72468 
L 115.909027 132.72468 
L 115.909027 132.249676 
L 116.233074 132.249676 
L 116.302513 131.299668 
L 116.62656 131.299668 
L 116.62656 130.824663 
L 117.158924 130.824663 
L 117.158924 130.349659 
L 117.413533 130.349659 
L 117.413533 129.874655 
L 117.807019 129.874655 
L 117.899604 128.449642 
L 119.566134 128.449642 
L 119.566134 127.499634 
L 119.797596 127.499634 
L 119.797596 127.024629 
L 120.260521 127.024629 
L 120.260521 126.074621 
L 120.839177 126.074621 
L 120.931762 125.124612 
L 121.302102 125.124612 
L 121.325248 124.174604 
L 121.880758 124.174604 
L 121.880758 123.224595 
L 122.089074 123.224595 
L 122.089074 122.749591 
L 123.153802 122.749591 
L 123.153802 122.274587 
L 123.77875 122.274587 
L 123.77875 121.799582 
L 123.96392 121.799582 
L 123.96392 121.324578 
L 124.542577 121.324578 
L 124.542577 120.849574 
L 124.820332 120.849574 
L 124.820332 120.37457 
L 125.190671 120.37457 
L 125.236964 119.424561 
L 125.653596 119.424561 
L 125.653596 118.949557 
L 127.250687 118.949557 
L 127.273834 117.999548 
L 127.551589 117.999548 
L 127.551589 117.524544 
L 128.408 117.524544 
L 128.408 117.04954 
L 128.755193 117.04954 
L 128.755193 116.574536 
L 128.870925 116.574536 
L 128.870925 116.099531 
L 129.218118 116.099531 
L 129.264411 115.149523 
L 129.472727 115.149523 
L 129.472727 114.674518 
L 130.190261 114.674518 
L 130.213407 113.72451 
L 130.352284 113.72451 
L 130.352284 113.249506 
L 130.583747 113.249506 
L 130.583747 112.774501 
L 131.254988 112.774501 
L 131.254988 112.299497 
L 131.717913 112.299497 
L 131.717913 111.824493 
L 132.504885 111.824493 
L 132.504885 111.349489 
L 132.643763 111.349489 
L 132.643763 110.874484 
L 133.060395 110.874484 
L 133.060395 110.39948 
L 133.615905 110.39948 
L 133.615905 109.924476 
L 133.939953 109.924476 
L 133.963099 108.974467 
L 136.046261 108.974467 
L 136.046261 108.499463 
L 136.995257 108.499463 
L 136.995257 108.024459 
L 137.666498 108.024459 
L 137.666498 107.549455 
L 138.268301 107.549455 
L 138.268301 107.07445 
L 138.384032 107.07445 
L 138.384032 106.599446 
L 142.064285 106.599446 
L 142.064285 106.124442 
L 142.388333 106.124442 
L 142.388333 105.649438 
L 142.619795 105.649438 
L 142.619795 105.174433 
L 143.360475 105.174433 
L 143.360475 104.699429 
L 145.096443 104.699429 
L 145.096443 104.224425 
L 145.212175 104.224425 
L 145.212175 103.74942 
L 145.582515 103.74942 
L 145.582515 103.274416 
L 145.790831 103.274416 
L 145.790831 102.799412 
L 145.929708 102.799412 
L 145.929708 102.324408 
L 146.670388 102.324408 
L 146.670388 101.849403 
L 147.873993 101.849403 
L 147.873993 101.374399 
L 149.702546 101.374399 
L 149.702546 100.899395 
L 150.072886 100.899395 
L 150.072886 100.424391 
L 151.230199 100.424391 
L 151.230199 99.949386 
L 152.132902 99.949386 
L 152.132902 99.474382 
L 152.45695 99.474382 
L 152.480096 98.524374 
L 152.688412 98.524374 
L 152.688412 98.049369 
L 154.077187 98.049369 
L 154.077187 97.574365 
L 154.331796 97.574365 
L 154.331796 97.099361 
L 155.627986 97.099361 
L 155.627986 96.624357 
L 158.12778 96.624357 
L 158.12778 96.149352 
L 159.933187 96.149352 
L 159.933187 95.674348 
L 160.650721 95.674348 
L 160.650721 95.199344 
L 161.391401 95.199344 
L 161.414547 94.249335 
L 161.946911 94.249335 
L 161.970057 93.299327 
L 162.664444 93.299327 
L 162.664444 92.824322 
L 162.965346 92.824322 
L 162.965346 92.349318 
L 163.706026 92.349318 
L 163.729172 91.39931 
L 164.16895 91.39931 
L 164.16895 90.924305 
L 165.534579 90.924305 
L 165.580871 89.974297 
L 168.751907 89.974297 
L 168.751907 89.499293 
L 172.640477 89.499293 
L 172.640477 88.549284 
L 173.54318 88.549284 
L 173.54318 88.07428 
L 174.955101 88.07428 
L 174.955101 87.599276 
L 175.186564 87.599276 
L 175.186564 87.124271 
L 175.718927 87.124271 
L 175.718927 86.649267 
L 178.519623 86.649267 
L 178.519623 86.174263 
L 179.214011 86.174263 
L 179.214011 85.699259 
L 180.255592 85.699259 
L 180.255592 85.224254 
L 180.903687 85.224254 
L 180.903687 84.74925 
L 181.690659 84.74925 
L 181.690659 84.274246 
L 181.945268 84.274246 
L 181.945268 83.799241 
L 182.570216 83.799241 
L 182.593363 82.849233 
L 183.84326 82.849233 
L 183.84326 82.374229 
L 185.185742 82.374229 
L 185.185742 81.899224 
L 186.134738 81.899224 
L 186.134738 81.42422 
L 187.153173 81.42422 
L 187.153173 80.949216 
L 189.236335 80.949216 
L 189.236335 80.474212 
L 190.532525 80.474212 
L 190.532525 79.999207 
L 191.064889 79.999207 
L 191.064889 79.524203 
L 192.152762 79.524203 
L 192.152762 78.574195 
L 192.47681 78.574195 
L 192.47681 78.09919 
L 194.282217 78.09919 
L 194.305363 77.149182 
L 197.823593 77.149182 
L 197.823593 76.674178 
L 199.513269 76.674178 
L 199.513269 76.199173 
L 199.698439 76.199173 
L 199.698439 75.724169 
L 202.591719 75.724169 
L 202.591719 75.249165 
L 205.392415 75.249165 
L 205.392415 74.774161 
L 206.619166 74.774161 
L 206.619166 74.299156 
L 211.665048 74.299156 
L 211.665048 73.824152 
L 213.979673 73.824152 
L 213.979673 73.349148 
L 217.26644 73.349148 
L 217.26644 72.874143 
L 218.053412 72.874143 
L 218.053412 72.399139 
L 218.261728 72.399139 
L 218.261728 71.924135 
L 220.229159 71.924135 
L 220.229159 71.449131 
L 226.872132 71.449131 
L 226.872132 70.974126 
L 227.473934 70.974126 
L 227.497081 70.024118 
L 229.325634 70.024118 
L 229.325634 69.549114 
L 230.205191 69.549114 
L 230.205191 69.074109 
L 231.593966 69.074109 
L 231.593966 68.599105 
L 232.172622 68.599105 
L 232.172622 68.124101 
L 233.97803 68.124101 
L 233.97803 67.649097 
L 234.140053 67.649097 
L 234.140053 67.174092 
L 237.519405 67.174092 
L 237.519405 66.699088 
L 237.959184 66.699088 
L 237.98233 65.74908 
L 241.176512 65.74908 
L 241.176512 65.274075 
L 243.167089 65.274075 
L 243.236528 64.324067 
L 252.726489 64.324067 
L 252.726489 63.849063 
L 255.550331 63.849063 
L 255.550331 63.374058 
L 256.105841 63.374058 
L 256.105841 62.899054 
L 258.189003 62.899054 
L 258.189003 62.42405 
L 261.545209 62.42405 
L 261.568355 61.474041 
L 263.049715 61.474041 
L 263.049715 60.999037 
L 263.1423 60.999037 
L 265.202316 60.999037 
L 265.202316 60.524033 
L 274.993178 60.524033 
L 274.993178 60.049028 
L 278.951186 60.049028 
L 278.951186 59.574024 
L 303.625085 59.574024 
L 303.625085 59.09902 
L 315.753718 59.09902 
L 315.753718 58.624016 
L 317.698003 58.624016 
L 317.698003 58.149011 
L 326.748185 58.149011 
L 326.748185 57.674007 
L 328.183253 57.674007 
L 328.183253 57.199003 
L 330.150684 57.199003 
L 330.150684 56.723999 
L 334.340154 56.723999 
L 334.340154 55.77399 
L 338.228724 55.77399 
L 338.25187 55.298986 
L 348.875997 55.298986 
L 348.875997 54.823982 
L 350.403649 54.823982 
L 350.403649 54.348977 
L 356.051333 54.348977 
L 356.051333 53.873973 
L 358.180788 53.873973 
L 358.180788 53.398969 
L 358.78259 53.398969 
L 358.78259 52.923964 
L 364.939492 52.923964 
L 364.939492 52.44896 
L 389.358782 52.44896 
L 389.358782 51.973956 
L 393.849154 51.973956 
L 393.849154 51.498952 
L 403.709455 51.498952 
L 403.709455 51.023947 
L 412.389297 51.023947 
L 412.389297 50.548943 
L 412.713345 50.548943 
L 412.713345 50.073939 
L 417.828665 50.073939 
L 417.828665 49.598935 
L 431.947875 49.598935 
L 431.947875 49.12393 
L 447.733615 49.12393 
L 447.733615 48.648926 
L 454.955244 48.648926 
L 454.955244 48.173922 
L 459.214154 48.173922 
L 459.214154 47.698918 
L 473.518534 47.698918 
L 473.518534 47.223913 
L 492.29014 47.223913 
L 492.29014 46.748909 
L 559.553132 46.748909 
L 559.553132 46.748909 
" style="fill:none;stroke:#de8f05;stroke-linecap:round;stroke-width:1.2;"/>
   </g>
   <g id="patch_3">
    <path d="M 66.2638 302.1112 
L 66.2638 34.5888 
" style="fill:none;stroke:#cccccc;stroke-linecap:square;stroke-linejoin:miter;"/>
   </g>
   <g id="patch_4">
    <path d="M 583.0431 302.1112 
L 583.0431 34.5888 
" style="fill:none;stroke:#cccccc;stroke-linecap:square;stroke-linejoin:miter;"/>
   </g>
   <g id="patch_5">
    <path d="M 66.2638 302.1112 
L 583.0431 302.1112 
" style="fill:none;stroke:#cccccc;stroke-linecap:square;stroke-linejoin:miter;"/>
   </g>
   <g id="patch_6">
    <path d="M 66.2638 34.5888 
L 583.0431 34.5888 
" style="fill:none;stroke:#cccccc;stroke-linecap:square;stroke-linejoin:miter;"/>
   </g>
   <g id="text_15">
    <!-- Image-level ROC curve -->
    <g style="fill:#262626;" transform="translate(236.41985 28.5888)scale(0.1536 -0.1536)">
     <defs>
      <path d="M 628 4666 
L 1259 4666 
L 1259 0 
L 628 0 
L 628 4666 
z
" id="DejaVuSans-49" transform="scale(0.015625)"/>
      <path d="M 2906 1791 
Q 2906 2416 2648 2759 
Q 2391 3103 1925 3103 
Q 1463 3103 1205 2759 
Q 947 2416 947 1791 
Q 947 1169 1205 825 
Q 1463 481 1925 481 
Q 2391 481 2648 825 
Q 2906 1169 2906 1791 
z
M 3481 434 
Q 3481 -459 3084 -895 
Q 2688 -1331 1869 -1331 
Q 1566 -1331 1297 -1286 
Q 1028 -1241 775 -1147 
L 775 -588 
Q 1028 -725 1275 -790 
Q 1522 -856 1778 -856 
Q 2344 -856 2625 -561 
Q 2906 -266 2906 331 
L 2906 616 
Q 2728 306 2450 153 
Q 2172 0 1784 0 
Q 1141 0 747 490 
Q 353 981 353 1791 
Q 353 2603 747 3093 
Q 1141 3584 1784 3584 
Q 2172 3584 2450 3431 
Q 2728 3278 2906 2969 
L 2906 3500 
L 3481 3500 
L 3481 434 
z
" id="DejaVuSans-67" transform="scale(0.015625)"/>
      <path d="M 313 2009 
L 1997 2009 
L 1997 1497 
L 313 1497 
L 313 2009 
z
" id="DejaVuSans-2d" transform="scale(0.015625)"/>
      <path d="M 2522 4238 
Q 1834 4238 1429 3725 
Q 1025 3213 1025 2328 
Q 1025 1447 1429 934 
Q 1834 422 2522 422 
Q 3209 422 3611 934 
Q 4013 1447 4013 2328 
Q 4013 3213 3611 3725 
Q 3209 4238 2522 4238 
z
M 2522 4750 
Q 3503 4750 4090 4092 
Q 4678 3434 4678 2328 
Q 4678 1225 4090 567 
Q 3503 -91 2522 -91 
Q 1538 -91 948 565 
Q 359 1222 359 2328 
Q 359 3434 948 4092 
Q 1538 4750 2522 4750 
z
" id="DejaVuSans-4f" transform="scale(0.015625)"/>
      <path d="M 4122 4306 
L 4122 3641 
Q 3803 3938 3442 4084 
Q 3081 4231 2675 4231 
Q 1875 4231 1450 3742 
Q 1025 3253 1025 2328 
Q 1025 1406 1450 917 
Q 1875 428 2675 428 
Q 3081 428 3442 575 
Q 3803 722 4122 1019 
L 4122 359 
Q 3791 134 3420 21 
Q 3050 -91 2638 -91 
Q 1578 -91 968 557 
Q 359 1206 359 2328 
Q 359 3453 968 4101 
Q 1578 4750 2638 4750 
Q 3056 4750 3426 4639 
Q 3797 4528 4122 4306 
z
" id="DejaVuSans-43" transform="scale(0.015625)"/>
      <path d="M 3122 3366 
L 3122 2828 
Q 2878 2963 2633 3030 
Q 2388 3097 2138 3097 
Q 1578 3097 1268 2742 
Q 959 2388 959 1747 
Q 959 1106 1268 751 
Q 1578 397 2138 397 
Q 2388 397 2633 464 
Q 2878 531 3122 666 
L 3122 134 
Q 2881 22 2623 -34 
Q 2366 -91 2075 -91 
Q 1284 -91 818 406 
Q 353 903 353 1747 
Q 353 2603 823 3093 
Q 1294 3584 2113 3584 
Q 2378 3584 2631 3529 
Q 2884 3475 3122 3366 
z
" id="DejaVuSans-63" transform="scale(0.015625)"/>
     </defs>
     <use xlink:href="#DejaVuSans-49"/>
     <use x="29.492188" xlink:href="#DejaVuSans-6d"/>
     <use x="126.904297" xlink:href="#DejaVuSans-61"/>
     <use x="188.183594" xlink:href="#DejaVuSans-67"/>
     <use x="251.660156" xlink:href="#DejaVuSans-65"/>
     <use x="313.183594" xlink:href="#DejaVuSans-2d"/>
     <use x="349.267578" xlink:href="#DejaVuSans-6c"/>
     <use x="377.050781" xlink:href="#DejaVuSans-65"/>
     <use x="438.574219" xlink:href="#DejaVuSans-76"/>
     <use x="497.753906" xlink:href="#DejaVuSans-65"/>
     <use x="559.277344" xlink:href="#DejaVuSans-6c"/>
     <use x="587.060547" xlink:href="#DejaVuSans-20"/>
     <use x="618.847656" xlink:href="#DejaVuSans-52"/>
     <use x="688.330078" xlink:href="#DejaVuSans-4f"/>
     <use x="767.041016" xlink:href="#DejaVuSans-43"/>
     <use x="836.865234" xlink:href="#DejaVuSans-20"/>
     <use x="868.652344" xlink:href="#DejaVuSans-63"/>
     <use x="923.632812" xlink:href="#DejaVuSans-75"/>
     <use x="987.011719" xlink:href="#DejaVuSans-72"/>
     <use x="1028.125" xlink:href="#DejaVuSans-76"/>
     <use x="1087.304688" xlink:href="#DejaVuSans-65"/>
    </g>
   </g>
   <g id="legend_1">
    <g id="patch_7">
     <path d="M 396.3137 295.0712 
L 573.1871 295.0712 
Q 576.0031 295.0712 576.0031 292.2552 
L 576.0031 252.3296 
Q 576.0031 249.5136 573.1871 249.5136 
L 396.3137 249.5136 
Q 393.4977 249.5136 393.4977 252.3296 
L 393.4977 292.2552 
Q 393.4977 295.0712 396.3137 295.0712 
z
" style="fill:#ffffff;opacity:0.8;stroke:#cccccc;stroke-linejoin:miter;stroke-width:0.8;"/>
    </g>
    <g id="line2d_15">
     <path d="M 399.1297 260.9162 
L 427.2897 260.9162 
" style="fill:none;stroke:#0173b2;stroke-linecap:round;stroke-width:1.2;"/>
    </g>
    <g id="line2d_16"/>
    <g id="text_16">
     <!-- Tufts (AUC = 0.97) -->
     <g style="fill:#262626;" transform="translate(438.5537 265.8442)scale(0.1408 -0.1408)">
      <defs>
       <path d="M 2375 4863 
L 2375 4384 
L 1825 4384 
Q 1516 4384 1395 4259 
Q 1275 4134 1275 3809 
L 1275 3500 
L 2222 3500 
L 2222 3053 
L 1275 3053 
L 1275 0 
L 697 0 
L 697 3053 
L 147 3053 
L 147 3500 
L 697 3500 
L 697 3744 
Q 697 4328 969 4595 
Q 1241 4863 1831 4863 
L 2375 4863 
z
" id="DejaVuSans-66" transform="scale(0.015625)"/>
       <path d="M 2188 4044 
L 1331 1722 
L 3047 1722 
L 2188 4044 
z
M 1831 4666 
L 2547 4666 
L 4325 0 
L 3669 0 
L 3244 1197 
L 1141 1197 
L 716 0 
L 50 0 
L 1831 4666 
z
" id="DejaVuSans-41" transform="scale(0.015625)"/>
       <path d="M 556 4666 
L 1191 4666 
L 1191 1831 
Q 1191 1081 1462 751 
Q 1734 422 2344 422 
Q 2950 422 3222 751 
Q 3494 1081 3494 1831 
L 3494 4666 
L 4128 4666 
L 4128 1753 
Q 4128 841 3676 375 
Q 3225 -91 2344 -91 
Q 1459 -91 1007 375 
Q 556 841 556 1753 
L 556 4666 
z
" id="DejaVuSans-55" transform="scale(0.015625)"/>
       <path d="M 678 2906 
L 4684 2906 
L 4684 2381 
L 678 2381 
L 678 2906 
z
M 678 1631 
L 4684 1631 
L 4684 1100 
L 678 1100 
L 678 1631 
z
" id="DejaVuSans-3d" transform="scale(0.015625)"/>
       <path d="M 703 97 
L 703 672 
Q 941 559 1184 500 
Q 1428 441 1663 441 
Q 2288 441 2617 861 
Q 2947 1281 2994 2138 
Q 2813 1869 2534 1725 
Q 2256 1581 1919 1581 
Q 1219 1581 811 2004 
Q 403 2428 403 3163 
Q 403 3881 828 4315 
Q 1253 4750 1959 4750 
Q 2769 4750 3195 4129 
Q 3622 3509 3622 2328 
Q 3622 1225 3098 567 
Q 2575 -91 1691 -91 
Q 1453 -91 1209 -44 
Q 966 3 703 97 
z
M 1959 2075 
Q 2384 2075 2632 2365 
Q 2881 2656 2881 3163 
Q 2881 3666 2632 3958 
Q 2384 4250 1959 4250 
Q 1534 4250 1286 3958 
Q 1038 3666 1038 3163 
Q 1038 2656 1286 2365 
Q 1534 2075 1959 2075 
z
" id="DejaVuSans-39" transform="scale(0.015625)"/>
       <path d="M 525 4666 
L 3525 4666 
L 3525 4397 
L 1831 0 
L 1172 0 
L 2766 4134 
L 525 4134 
L 525 4666 
z
" id="DejaVuSans-37" transform="scale(0.015625)"/>
      </defs>
      <use xlink:href="#DejaVuSans-54"/>
      <use x="45.958984" xlink:href="#DejaVuSans-75"/>
      <use x="109.337891" xlink:href="#DejaVuSans-66"/>
      <use x="142.792969" xlink:href="#DejaVuSans-74"/>
      <use x="182.001953" xlink:href="#DejaVuSans-73"/>
      <use x="234.101562" xlink:href="#DejaVuSans-20"/>
      <use x="265.888672" xlink:href="#DejaVuSans-28"/>
      <use x="304.902344" xlink:href="#DejaVuSans-41"/>
      <use x="373.310547" xlink:href="#DejaVuSans-55"/>
      <use x="446.503906" xlink:href="#DejaVuSans-43"/>
      <use x="516.328125" xlink:href="#DejaVuSans-20"/>
      <use x="548.115234" xlink:href="#DejaVuSans-3d"/>
      <use x="631.904297" xlink:href="#DejaVuSans-20"/>
      <use x="663.691406" xlink:href="#DejaVuSans-30"/>
      <use x="727.314453" xlink:href="#DejaVuSans-2e"/>
      <use x="759.101562" xlink:href="#DejaVuSans-39"/>
      <use x="822.724609" xlink:href="#DejaVuSans-37"/>
      <use x="886.347656" xlink:href="#DejaVuSans-29"/>
     </g>
    </g>
    <g id="line2d_17">
     <path d="M 399.1297 281.583 
L 427.2897 281.583 
" style="fill:none;stroke:#de8f05;stroke-linecap:round;stroke-width:1.2;"/>
    </g>
    <g id="line2d_18"/>
    <g id="text_17">
     <!-- Penn (AUC = 0.91) -->
     <g style="fill:#262626;" transform="translate(438.5537 286.511)scale(0.1408 -0.1408)">
      <defs>
       <path d="M 3513 2113 
L 3513 0 
L 2938 0 
L 2938 2094 
Q 2938 2591 2744 2837 
Q 2550 3084 2163 3084 
Q 1697 3084 1428 2787 
Q 1159 2491 1159 1978 
L 1159 0 
L 581 0 
L 581 3500 
L 1159 3500 
L 1159 2956 
Q 1366 3272 1645 3428 
Q 1925 3584 2291 3584 
Q 2894 3584 3203 3211 
Q 3513 2838 3513 2113 
z
" id="DejaVuSans-6e" transform="scale(0.015625)"/>
      </defs>
      <use xlink:href="#DejaVuSans-50"/>
      <use x="56.677734" xlink:href="#DejaVuSans-65"/>
      <use x="118.201172" xlink:href="#DejaVuSans-6e"/>
      <use x="181.580078" xlink:href="#DejaVuSans-6e"/>
      <use x="244.958984" xlink:href="#DejaVuSans-20"/>
      <use x="276.746094" xlink:href="#DejaVuSans-28"/>
      <use x="315.759766" xlink:href="#DejaVuSans-41"/>
      <use x="384.167969" xlink:href="#DejaVuSans-55"/>
      <use x="457.361328" xlink:href="#DejaVuSans-43"/>
      <use x="527.185547" xlink:href="#DejaVuSans-20"/>
      <use x="558.972656" xlink:href="#DejaVuSans-3d"/>
      <use x="642.761719" xlink:href="#DejaVuSans-20"/>
      <use x="674.548828" xlink:href="#DejaVuSans-30"/>
      <use x="738.171875" xlink:href="#DejaVuSans-2e"/>
      <use x="769.958984" xlink:href="#DejaVuSans-39"/>
      <use x="833.582031" xlink:href="#DejaVuSans-31"/>
      <use x="897.205078" xlink:href="#DejaVuSans-29"/>
     </g>
    </g>
   </g>
  </g>
  <g id="axes_2">
   <g id="patch_8">
    <path d="M 618.6319 302.1112 
L 1135.4112 302.1112 
L 1135.4112 34.5888 
L 618.6319 34.5888 
z
" style="fill:#ffffff;"/>
   </g>
   <g id="matplotlib.axis_3">
    <g id="xtick_7">
     <g id="line2d_19">
      <path clip-path="url(#p85ac3fd216)" d="M 642.121868 302.1112 
L 642.121868 34.5888 
" style="fill:none;stroke:#cccccc;stroke-linecap:round;stroke-width:0.8;"/>
     </g>
     <g id="text_18">
      <!-- 0.0 -->
      <g style="fill:#262626;" transform="translate(630.926068 321.1098)scale(0.1408 -0.1408)">
       <use xlink:href="#DejaVuSans-30"/>
       <use x="63.623047" xlink:href="#DejaVuSans-2e"/>
       <use x="95.410156" xlink:href="#DejaVuSans-30"/>
      </g>
     </g>
    </g>
    <g id="xtick_8">
     <g id="line2d_20">
      <path clip-path="url(#p85ac3fd216)" d="M 736.081741 302.1112 
L 736.081741 34.5888 
" style="fill:none;stroke:#cccccc;stroke-linecap:round;stroke-width:0.8;"/>
     </g>
     <g id="text_19">
      <!-- 0.2 -->
      <g style="fill:#262626;" transform="translate(724.885941 321.1098)scale(0.1408 -0.1408)">
       <use xlink:href="#DejaVuSans-30"/>
       <use x="63.623047" xlink:href="#DejaVuSans-2e"/>
       <use x="95.410156" xlink:href="#DejaVuSans-32"/>
      </g>
     </g>
    </g>
    <g id="xtick_9">
     <g id="line2d_21">
      <path clip-path="url(#p85ac3fd216)" d="M 830.041614 302.1112 
L 830.041614 34.5888 
" style="fill:none;stroke:#cccccc;stroke-linecap:round;stroke-width:0.8;"/>
     </g>
     <g id="text_20">
      <!-- 0.4 -->
      <g style="fill:#262626;" transform="translate(818.845814 321.1098)scale(0.1408 -0.1408)">
       <use xlink:href="#DejaVuSans-30"/>
       <use x="63.623047" xlink:href="#DejaVuSans-2e"/>
       <use x="95.410156" xlink:href="#DejaVuSans-34"/>
      </g>
     </g>
    </g>
    <g id="xtick_10">
     <g id="line2d_22">
      <path clip-path="url(#p85ac3fd216)" d="M 924.001486 302.1112 
L 924.001486 34.5888 
" style="fill:none;stroke:#cccccc;stroke-linecap:round;stroke-width:0.8;"/>
     </g>
     <g id="text_21">
      <!-- 0.6 -->
      <g style="fill:#262626;" transform="translate(912.805686 321.1098)scale(0.1408 -0.1408)">
       <use xlink:href="#DejaVuSans-30"/>
       <use x="63.623047" xlink:href="#DejaVuSans-2e"/>
       <use x="95.410156" xlink:href="#DejaVuSans-36"/>
      </g>
     </g>
    </g>
    <g id="xtick_11">
     <g id="line2d_23">
      <path clip-path="url(#p85ac3fd216)" d="M 1017.961359 302.1112 
L 1017.961359 34.5888 
" style="fill:none;stroke:#cccccc;stroke-linecap:round;stroke-width:0.8;"/>
     </g>
     <g id="text_22">
      <!-- 0.8 -->
      <g style="fill:#262626;" transform="translate(1006.765559 321.1098)scale(0.1408 -0.1408)">
       <use xlink:href="#DejaVuSans-30"/>
       <use x="63.623047" xlink:href="#DejaVuSans-2e"/>
       <use x="95.410156" xlink:href="#DejaVuSans-38"/>
      </g>
     </g>
    </g>
    <g id="xtick_12">
     <g id="line2d_24">
      <path clip-path="url(#p85ac3fd216)" d="M 1111.921232 302.1112 
L 1111.921232 34.5888 
" style="fill:none;stroke:#cccccc;stroke-linecap:round;stroke-width:0.8;"/>
     </g>
     <g id="text_23">
      <!-- 1.0 -->
      <g style="fill:#262626;" transform="translate(1100.725432 321.1098)scale(0.1408 -0.1408)">
       <use xlink:href="#DejaVuSans-31"/>
       <use x="63.623047" xlink:href="#DejaVuSans-2e"/>
       <use x="95.410156" xlink:href="#DejaVuSans-30"/>
      </g>
     </g>
    </g>
    <g id="text_24">
     <!-- False Positive Rate (Positive label: Neuroma) -->
     <g style="fill:#262626;" transform="translate(706.36115 339.7092)scale(0.1536 -0.1536)">
      <use xlink:href="#DejaVuSans-46"/>
      <use x="48.394531" xlink:href="#DejaVuSans-61"/>
      <use x="109.673828" xlink:href="#DejaVuSans-6c"/>
      <use x="137.457031" xlink:href="#DejaVuSans-73"/>
      <use x="189.556641" xlink:href="#DejaVuSans-65"/>
      <use x="251.080078" xlink:href="#DejaVuSans-20"/>
      <use x="282.867188" xlink:href="#DejaVuSans-50"/>
      <use x="339.544922" xlink:href="#DejaVuSans-6f"/>
      <use x="400.726562" xlink:href="#DejaVuSans-73"/>
      <use x="452.826172" xlink:href="#DejaVuSans-69"/>
      <use x="480.609375" xlink:href="#DejaVuSans-74"/>
      <use x="519.818359" xlink:href="#DejaVuSans-69"/>
      <use x="547.601562" xlink:href="#DejaVuSans-76"/>
      <use x="606.78125" xlink:href="#DejaVuSans-65"/>
      <use x="668.304688" xlink:href="#DejaVuSans-20"/>
      <use x="700.091797" xlink:href="#DejaVuSans-52"/>
      <use x="767.324219" xlink:href="#DejaVuSans-61"/>
      <use x="828.603516" xlink:href="#DejaVuSans-74"/>
      <use x="867.8125" xlink:href="#DejaVuSans-65"/>
      <use x="929.335938" xlink:href="#DejaVuSans-20"/>
      <use x="961.123047" xlink:href="#DejaVuSans-28"/>
      <use x="1000.136719" xlink:href="#DejaVuSans-50"/>
      <use x="1056.814453" xlink:href="#DejaVuSans-6f"/>
      <use x="1117.996094" xlink:href="#DejaVuSans-73"/>
      <use x="1170.095703" xlink:href="#DejaVuSans-69"/>
      <use x="1197.878906" xlink:href="#DejaVuSans-74"/>
      <use x="1237.087891" xlink:href="#DejaVuSans-69"/>
      <use x="1264.871094" xlink:href="#DejaVuSans-76"/>
      <use x="1324.050781" xlink:href="#DejaVuSans-65"/>
      <use x="1385.574219" xlink:href="#DejaVuSans-20"/>
      <use x="1417.361328" xlink:href="#DejaVuSans-6c"/>
      <use x="1445.144531" xlink:href="#DejaVuSans-61"/>
      <use x="1506.423828" xlink:href="#DejaVuSans-62"/>
      <use x="1569.900391" xlink:href="#DejaVuSans-65"/>
      <use x="1631.423828" xlink:href="#DejaVuSans-6c"/>
      <use x="1659.207031" xlink:href="#DejaVuSans-3a"/>
      <use x="1692.898438" xlink:href="#DejaVuSans-20"/>
      <use x="1724.685547" xlink:href="#DejaVuSans-4e"/>
      <use x="1799.490234" xlink:href="#DejaVuSans-65"/>
      <use x="1861.013672" xlink:href="#DejaVuSans-75"/>
      <use x="1924.392578" xlink:href="#DejaVuSans-72"/>
      <use x="1963.255859" xlink:href="#DejaVuSans-6f"/>
      <use x="2024.4375" xlink:href="#DejaVuSans-6d"/>
      <use x="2121.849609" xlink:href="#DejaVuSans-61"/>
      <use x="2183.128906" xlink:href="#DejaVuSans-29"/>
     </g>
    </g>
   </g>
   <g id="matplotlib.axis_4">
    <g id="ytick_7">
     <g id="line2d_25">
      <path clip-path="url(#p85ac3fd216)" d="M 618.6319 289.951091 
L 1135.4112 289.951091 
" style="fill:none;stroke:#cccccc;stroke-linecap:round;stroke-width:0.8;"/>
     </g>
    </g>
    <g id="ytick_8">
     <g id="line2d_26">
      <path clip-path="url(#p85ac3fd216)" d="M 618.6319 241.310655 
L 1135.4112 241.310655 
" style="fill:none;stroke:#cccccc;stroke-linecap:round;stroke-width:0.8;"/>
     </g>
    </g>
    <g id="ytick_9">
     <g id="line2d_27">
      <path clip-path="url(#p85ac3fd216)" d="M 618.6319 192.670218 
L 1135.4112 192.670218 
" style="fill:none;stroke:#cccccc;stroke-linecap:round;stroke-width:0.8;"/>
     </g>
    </g>
    <g id="ytick_10">
     <g id="line2d_28">
      <path clip-path="url(#p85ac3fd216)" d="M 618.6319 144.029782 
L 1135.4112 144.029782 
" style="fill:none;stroke:#cccccc;stroke-linecap:round;stroke-width:0.8;"/>
     </g>
    </g>
    <g id="ytick_11">
     <g id="line2d_29">
      <path clip-path="url(#p85ac3fd216)" d="M 618.6319 95.389345 
L 1135.4112 95.389345 
" style="fill:none;stroke:#cccccc;stroke-linecap:round;stroke-width:0.8;"/>
     </g>
    </g>
    <g id="ytick_12">
     <g id="line2d_30">
      <path clip-path="url(#p85ac3fd216)" d="M 618.6319 46.748909 
L 1135.4112 46.748909 
" style="fill:none;stroke:#cccccc;stroke-linecap:round;stroke-width:0.8;"/>
     </g>
    </g>
    <g id="text_25">
     <!-- True Positive Rate (Positive label: Neuroma) -->
     <g style="fill:#262626;" transform="translate(611.4375 336.0356)rotate(-90)scale(0.1536 -0.1536)">
      <use xlink:href="#DejaVuSans-54"/>
      <use x="46.333984" xlink:href="#DejaVuSans-72"/>
      <use x="87.447266" xlink:href="#DejaVuSans-75"/>
      <use x="150.826172" xlink:href="#DejaVuSans-65"/>
      <use x="212.349609" xlink:href="#DejaVuSans-20"/>
      <use x="244.136719" xlink:href="#DejaVuSans-50"/>
      <use x="300.814453" xlink:href="#DejaVuSans-6f"/>
      <use x="361.996094" xlink:href="#DejaVuSans-73"/>
      <use x="414.095703" xlink:href="#DejaVuSans-69"/>
      <use x="441.878906" xlink:href="#DejaVuSans-74"/>
      <use x="481.087891" xlink:href="#DejaVuSans-69"/>
      <use x="508.871094" xlink:href="#DejaVuSans-76"/>
      <use x="568.050781" xlink:href="#DejaVuSans-65"/>
      <use x="629.574219" xlink:href="#DejaVuSans-20"/>
      <use x="661.361328" xlink:href="#DejaVuSans-52"/>
      <use x="728.59375" xlink:href="#DejaVuSans-61"/>
      <use x="789.873047" xlink:href="#DejaVuSans-74"/>
      <use x="829.082031" xlink:href="#DejaVuSans-65"/>
      <use x="890.605469" xlink:href="#DejaVuSans-20"/>
      <use x="922.392578" xlink:href="#DejaVuSans-28"/>
      <use x="961.40625" xlink:href="#DejaVuSans-50"/>
      <use x="1018.083984" xlink:href="#DejaVuSans-6f"/>
      <use x="1079.265625" xlink:href="#DejaVuSans-73"/>
      <use x="1131.365234" xlink:href="#DejaVuSans-69"/>
      <use x="1159.148438" xlink:href="#DejaVuSans-74"/>
      <use x="1198.357422" xlink:href="#DejaVuSans-69"/>
      <use x="1226.140625" xlink:href="#DejaVuSans-76"/>
      <use x="1285.320312" xlink:href="#DejaVuSans-65"/>
      <use x="1346.84375" xlink:href="#DejaVuSans-20"/>
      <use x="1378.630859" xlink:href="#DejaVuSans-6c"/>
      <use x="1406.414062" xlink:href="#DejaVuSans-61"/>
      <use x="1467.693359" xlink:href="#DejaVuSans-62"/>
      <use x="1531.169922" xlink:href="#DejaVuSans-65"/>
      <use x="1592.693359" xlink:href="#DejaVuSans-6c"/>
      <use x="1620.476562" xlink:href="#DejaVuSans-3a"/>
      <use x="1654.167969" xlink:href="#DejaVuSans-20"/>
      <use x="1685.955078" xlink:href="#DejaVuSans-4e"/>
      <use x="1760.759766" xlink:href="#DejaVuSans-65"/>
      <use x="1822.283203" xlink:href="#DejaVuSans-75"/>
      <use x="1885.662109" xlink:href="#DejaVuSans-72"/>
      <use x="1924.525391" xlink:href="#DejaVuSans-6f"/>
      <use x="1985.707031" xlink:href="#DejaVuSans-6d"/>
      <use x="2083.119141" xlink:href="#DejaVuSans-61"/>
      <use x="2144.398438" xlink:href="#DejaVuSans-29"/>
     </g>
    </g>
   </g>
   <g id="line2d_31">
    <path clip-path="url(#p85ac3fd216)" d="M 642.121868 289.951091 
L 642.121868 283.871036 
L 642.121868 125.789618 
L 684.830901 125.789618 
L 684.830901 101.4694 
L 727.539934 101.4694 
L 727.539934 71.069127 
L 770.248967 71.069127 
L 770.248967 58.909018 
L 898.376067 58.909018 
L 898.376067 52.828964 
L 983.794133 52.828964 
L 983.794133 46.748909 
L 1111.921232 46.748909 
" style="fill:none;stroke:#0173b2;stroke-linecap:round;stroke-width:1.2;"/>
   </g>
   <g id="line2d_32">
    <path clip-path="url(#p85ac3fd216)" d="M 642.121868 289.951091 
L 642.121868 286.374588 
L 642.121868 243.456556 
L 656.803098 243.456556 
L 656.803098 143.314481 
L 686.165559 143.314481 
L 686.165559 118.278963 
L 700.846789 118.278963 
L 700.846789 107.549455 
L 715.528019 107.549455 
L 715.528019 103.972952 
L 759.571709 103.972952 
L 759.571709 96.819947 
L 774.252939 96.819947 
L 774.252939 89.666941 
L 803.615399 89.666941 
L 803.615399 75.36093 
L 832.97786 75.36093 
L 832.97786 61.05492 
L 877.02155 61.05492 
L 877.02155 57.478417 
L 935.74647 57.478417 
L 935.74647 53.901914 
L 965.108931 53.901914 
L 965.108931 50.325412 
L 1023.833851 50.325412 
L 1023.833851 46.748909 
L 1111.921232 46.748909 
" style="fill:none;stroke:#de8f05;stroke-linecap:round;stroke-width:1.2;"/>
   </g>
   <g id="patch_9">
    <path d="M 618.6319 302.1112 
L 618.6319 34.5888 
" style="fill:none;stroke:#cccccc;stroke-linecap:square;stroke-linejoin:miter;"/>
   </g>
   <g id="patch_10">
    <path d="M 1135.4112 302.1112 
L 1135.4112 34.5888 
" style="fill:none;stroke:#cccccc;stroke-linecap:square;stroke-linejoin:miter;"/>
   </g>
   <g id="patch_11">
    <path d="M 618.6319 302.1112 
L 1135.4112 302.1112 
" style="fill:none;stroke:#cccccc;stroke-linecap:square;stroke-linejoin:miter;"/>
   </g>
   <g id="patch_12">
    <path d="M 618.6319 34.5888 
L 1135.4112 34.5888 
" style="fill:none;stroke:#cccccc;stroke-linecap:square;stroke-linejoin:miter;"/>
   </g>
   <g id="text_26">
    <!-- Patient-level ROC curve -->
    <g style="fill:#262626;" transform="translate(786.10235 28.5888)scale(0.1536 -0.1536)">
     <use xlink:href="#DejaVuSans-50"/>
     <use x="55.802734" xlink:href="#DejaVuSans-61"/>
     <use x="117.082031" xlink:href="#DejaVuSans-74"/>
     <use x="156.291016" xlink:href="#DejaVuSans-69"/>
     <use x="184.074219" xlink:href="#DejaVuSans-65"/>
     <use x="245.597656" xlink:href="#DejaVuSans-6e"/>
     <use x="308.976562" xlink:href="#DejaVuSans-74"/>
     <use x="348.185547" xlink:href="#DejaVuSans-2d"/>
     <use x="384.269531" xlink:href="#DejaVuSans-6c"/>
     <use x="412.052734" xlink:href="#DejaVuSans-65"/>
     <use x="473.576172" xlink:href="#DejaVuSans-76"/>
     <use x="532.755859" xlink:href="#DejaVuSans-65"/>
     <use x="594.279297" xlink:href="#DejaVuSans-6c"/>
     <use x="622.0625" xlink:href="#DejaVuSans-20"/>
     <use x="653.849609" xlink:href="#DejaVuSans-52"/>
     <use x="723.332031" xlink:href="#DejaVuSans-4f"/>
     <use x="802.042969" xlink:href="#DejaVuSans-43"/>
     <use x="871.867188" xlink:href="#DejaVuSans-20"/>
     <use x="903.654297" xlink:href="#DejaVuSans-63"/>
     <use x="958.634766" xlink:href="#DejaVuSans-75"/>
     <use x="1022.013672" xlink:href="#DejaVuSans-72"/>
     <use x="1063.126953" xlink:href="#DejaVuSans-76"/>
     <use x="1122.306641" xlink:href="#DejaVuSans-65"/>
    </g>
   </g>
   <g id="legend_2">
    <g id="patch_13">
     <path d="M 948.6818 295.0712 
L 1125.5552 295.0712 
Q 1128.3712 295.0712 1128.3712 292.2552 
L 1128.3712 252.3296 
Q 1128.3712 249.5136 1125.5552 249.5136 
L 948.6818 249.5136 
Q 945.8658 249.5136 945.8658 252.3296 
L 945.8658 292.2552 
Q 945.8658 295.0712 948.6818 295.0712 
z
" style="fill:#ffffff;opacity:0.8;stroke:#cccccc;stroke-linejoin:miter;stroke-width:0.8;"/>
    </g>
    <g id="line2d_33">
     <path d="M 951.4978 260.9162 
L 979.6578 260.9162 
" style="fill:none;stroke:#0173b2;stroke-linecap:round;stroke-width:1.2;"/>
    </g>
    <g id="line2d_34"/>
    <g id="text_27">
     <!-- Tufts (AUC = 0.92) -->
     <g style="fill:#262626;" transform="translate(990.9218 265.8442)scale(0.1408 -0.1408)">
      <use xlink:href="#DejaVuSans-54"/>
      <use x="45.958984" xlink:href="#DejaVuSans-75"/>
      <use x="109.337891" xlink:href="#DejaVuSans-66"/>
      <use x="142.792969" xlink:href="#DejaVuSans-74"/>
      <use x="182.001953" xlink:href="#DejaVuSans-73"/>
      <use x="234.101562" xlink:href="#DejaVuSans-20"/>
      <use x="265.888672" xlink:href="#DejaVuSans-28"/>
      <use x="304.902344" xlink:href="#DejaVuSans-41"/>
      <use x="373.310547" xlink:href="#DejaVuSans-55"/>
      <use x="446.503906" xlink:href="#DejaVuSans-43"/>
      <use x="516.328125" xlink:href="#DejaVuSans-20"/>
      <use x="548.115234" xlink:href="#DejaVuSans-3d"/>
      <use x="631.904297" xlink:href="#DejaVuSans-20"/>
      <use x="663.691406" xlink:href="#DejaVuSans-30"/>
      <use x="727.314453" xlink:href="#DejaVuSans-2e"/>
      <use x="759.101562" xlink:href="#DejaVuSans-39"/>
      <use x="822.724609" xlink:href="#DejaVuSans-32"/>
      <use x="886.347656" xlink:href="#DejaVuSans-29"/>
     </g>
    </g>
    <g id="line2d_35">
     <path d="M 951.4978 281.583 
L 979.6578 281.583 
" style="fill:none;stroke:#de8f05;stroke-linecap:round;stroke-width:1.2;"/>
    </g>
    <g id="line2d_36"/>
    <g id="text_28">
     <!-- Penn (AUC = 0.87) -->
     <g style="fill:#262626;" transform="translate(990.9218 286.511)scale(0.1408 -0.1408)">
      <use xlink:href="#DejaVuSans-50"/>
      <use x="56.677734" xlink:href="#DejaVuSans-65"/>
      <use x="118.201172" xlink:href="#DejaVuSans-6e"/>
      <use x="181.580078" xlink:href="#DejaVuSans-6e"/>
      <use x="244.958984" xlink:href="#DejaVuSans-20"/>
      <use x="276.746094" xlink:href="#DejaVuSans-28"/>
      <use x="315.759766" xlink:href="#DejaVuSans-41"/>
      <use x="384.167969" xlink:href="#DejaVuSans-55"/>
      <use x="457.361328" xlink:href="#DejaVuSans-43"/>
      <use x="527.185547" xlink:href="#DejaVuSans-20"/>
      <use x="558.972656" xlink:href="#DejaVuSans-3d"/>
      <use x="642.761719" xlink:href="#DejaVuSans-20"/>
      <use x="674.548828" xlink:href="#DejaVuSans-30"/>
      <use x="738.171875" xlink:href="#DejaVuSans-2e"/>
      <use x="769.958984" xlink:href="#DejaVuSans-38"/>
      <use x="833.582031" xlink:href="#DejaVuSans-37"/>
      <use x="897.205078" xlink:href="#DejaVuSans-29"/>
     </g>
    </g>
   </g>
  </g>
 </g>
 <defs>
  <clipPath id="pb43ce76f01">
   <rect height="267.5224" width="516.7793" x="66.2638" y="34.5888"/>
  </clipPath>
  <clipPath id="p85ac3fd216">
   <rect height="267.5224" width="516.7793" x="618.6319" y="34.5888"/>
  </clipPath>
 </defs>
</svg>
